<?xml version="1.0" encoding="iso-8859-1"?>
<!-- Generator: Adobe Illustrator 19.0.0, SVG Export Plug-In . SVG Version: 6.00 Build 0)  -->
<svg version="1.1" id="Layer_1" xmlns="http://www.w3.org/2000/svg" xmlns:xlink="http://www.w3.org/1999/xlink" x="0px" y="0px"
	 viewBox="0 0 317.826 317.826" style="enable-background:new 0 0 317.826 317.826;" xml:space="preserve">
<g>
	<polygon style="fill:#13829B;" points="260.32,95.194 260.32,134.194 57.5,134.194 7.5,265.194 7.5,52.634 133.91,52.634 
		153.91,95.194 	"/>
	<g>
		<polygon style="fill:#28D2E4;" points="310.32,134.194 260.32,265.194 7.5,265.194 57.5,134.194 		"/>
		<path style="fill:#22313F;" d="M310.32,126.693h-42.5v-31.5c0-4.142-3.358-7.5-7.5-7.5H158.672l-17.974-38.25
			c-1.236-2.63-3.881-4.31-6.788-4.31H7.5c-4.142,0-7.5,3.358-7.5,7.5v212.56c0,4.092,3.335,7.501,7.504,7.501
			c0.004,0,0.008-0.001,0.013-0.001H260.32c3.11,0,5.897-1.92,7.007-4.826l50-131C319.2,131.962,315.569,126.693,310.32,126.693z
			 M15,60.134h114.148l17.974,38.25c1.236,2.63,3.881,4.31,6.788,4.31h98.91v24H57.5c-3.11,0-5.898,1.92-7.007,4.826L15,224.511
			V60.134z M255.155,257.693H18.39l44.275-116c10.806,0,225.962,0,236.765,0L255.155,257.693z"/>
	</g>
</g>
<g>
</g>
<g>
</g>
<g>
</g>
<g>
</g>
<g>
</g>
<g>
</g>
<g>
</g>
<g>
</g>
<g>
</g>
<g>
</g>
<g>
</g>
<g>
</g>
<g>
</g>
<g>
</g>
<g>
</g>
</svg>
