<?xml version="1.0" encoding="iso-8859-1"?>
<!-- Generator: Adobe Illustrator 19.0.0, SVG Export Plug-In . SVG Version: 6.00 Build 0)  -->
<svg xmlns="http://www.w3.org/2000/svg" xmlns:xlink="http://www.w3.org/1999/xlink" version="1.1" id="Capa_1" x="0px" y="0px" viewBox="0 0 512 512" style="enable-background:new 0 0 512 512;" xml:space="preserve">
<linearGradient id="SVGID_1_" gradientUnits="userSpaceOnUse" x1="256" y1="509" x2="256" y2="-1.04" gradientTransform="matrix(1 0 0 -1 0 514)">
	<stop offset="0" style="stop-color:#94E4D1"/>
	<stop offset="1" style="stop-color:#32ADB7"/>
</linearGradient>
<path style="fill:url(#SVGID_1_);" d="M512,118.226v275.547C512,459.071,459.071,512,393.774,512H118.227  C52.929,512,0,459.071,0,393.774V118.226C0,52.929,52.929,0,118.227,0h275.547C459.071,0,512,52.929,512,118.226z"/>
<linearGradient id="SVGID_2_" gradientUnits="userSpaceOnUse" x1="256" y1="505.078" x2="256" y2="3.01" gradientTransform="matrix(1 0 0 -1 0 514)">
	<stop offset="0" style="stop-color:#57D4B7"/>
	<stop offset="1" style="stop-color:#209AB7"/>
</linearGradient>
<path style="fill:url(#SVGID_2_);" d="M118.227,508C55.242,508,4,456.758,4,393.773V118.227C4,55.242,55.242,4,118.227,4h275.547  C456.758,4,508,55.242,508,118.227v275.547C508,456.758,456.758,508,393.773,508H118.227z"/>
<linearGradient id="SVGID_3_" gradientUnits="userSpaceOnUse" x1="219.49" y1="301.79" x2="488.11" y2="33.17" gradientTransform="matrix(1 0 0 -1 0 514)">
	<stop offset="0" style="stop-color:#006793"/>
	<stop offset="1" style="stop-color:#2C9FB7;stop-opacity:0"/>
</linearGradient>
<path style="opacity:0.5;fill:url(#SVGID_3_);enable-background:new    ;" d="M512,218v175.77C512,459.07,459.07,512,393.77,512  H232.56L120,399.44L223.67,305l10.66-106.67l161.159-96.737L512,218z"/>
<path style="opacity:0.3;fill:#1A1A1A;enable-background:new    ;" d="M384.983,103.014l-153.84,32.7  c-10.555,2.243-19.111,12.618-19.111,23.173v14.069V291.35c0,7.85-6.558,14.224-14.394,13.756  c-6.418-0.383-13.309,0.132-20.483,1.657c-33.952,7.217-61.57,34.348-62.541,61.065h-0.046v15.517  c0,27.178,28.021,43.254,62.587,35.907c33.547-7.131,60.925-33.703,62.51-60.108l0.077-0.016V244.463  c0-10.555,8.556-20.929,19.111-23.173l98.42-20.92c10.555-2.243,19.111,4.494,19.111,15.049v40.996  c0,7.85-6.558,14.224-14.394,13.756c-6.418-0.383-13.309,0.132-20.483,1.656c-34.566,7.347-62.587,35.335-62.587,62.513  c0,0.192,0.014,15.214,0.06,15.924c1.251,26.045,28.758,41.229,62.527,34.052c33.547-7.13,60.925-33.703,62.51-60.108l0.077-0.016  v-14.069V132.131v-14.069C404.094,107.508,395.538,100.77,384.983,103.014z"/>
<linearGradient id="SVGID_4_" gradientUnits="userSpaceOnUse" x1="110.547" y1="250.1828" x2="400.073" y2="250.1828" gradientTransform="matrix(1 0 0 -1 0 514)">
	<stop offset="0" style="stop-color:#ADADAD"/>
	<stop offset="0.995" style="stop-color:#A1A1A1"/>
</linearGradient>
<path style="fill:url(#SVGID_4_);" d="M380.963,112.058l-153.84,32.7c-10.555,2.243-19.111,12.618-19.111,23.173v132.464  c0,7.85-6.558,14.224-14.394,13.756c-6.417-0.383-13.309,0.132-20.483,1.657c-27.961,5.943-51.633,25.394-59.661,46.996h-2.927  v15.517c0,27.178,28.021,43.254,62.587,35.907c33.547-7.131,60.925-33.703,62.51-60.108l0.077-0.016V239.439  c0-10.555,8.556-20.929,19.111-23.173l98.42-20.92c10.555-2.243,19.111,4.494,19.111,15.049v55.066  c0,7.85-6.558,14.224-14.394,13.756c-6.417-0.383-13.309,0.132-20.483,1.656c-28.759,6.113-52.97,26.516-60.3,48.85h-2.269v13.085  c-0.003,0.193-0.018,0.385-0.018,0.578c0,0.192,0.016,0.379,0.018,0.57v1.285h0.042c1.251,26.045,28.758,41.229,62.527,34.052  c33.547-7.13,60.925-33.703,62.51-60.108l0.077-0.016V127.107C400.074,116.552,391.518,109.815,380.963,112.058z"/>
<path style="fill:#FFFFFF;" d="M208.012,153.862v132.464c0,7.85-6.558,14.224-14.394,13.756c-6.417-0.383-13.309,0.132-20.483,1.657  c-34.566,7.347-62.587,35.335-62.587,62.513s28.021,43.254,62.587,35.906c33.547-7.131,62.587-33.824,62.587-60.124l0,0V225.369  c0-10.554,8.556-20.929,19.111-23.173l98.42-20.92c10.555-2.243,19.111,4.494,19.111,15.049v55.066  c0,7.85-6.558,14.224-14.394,13.756c-6.418-0.383-13.309,0.132-20.483,1.656c-34.566,7.347-62.587,35.335-62.587,62.513  s28.021,43.254,62.587,35.906c33.547-7.131,62.587-33.89,62.587-60.124l0,0v-192.06c0-10.554-8.556-17.292-19.111-15.049  l-153.84,32.7C216.569,132.932,208.012,143.307,208.012,153.862z"/>
<linearGradient id="SVGID_5_" gradientUnits="userSpaceOnUse" x1="112.558" y1="264.253" x2="398.064" y2="264.253" gradientTransform="matrix(1 0 0 -1 0 514)">
	<stop offset="0" style="stop-color:#F2F2F2"/>
	<stop offset="0.995" style="stop-color:#E6E6E6"/>
</linearGradient>
<path style="fill:url(#SVGID_5_);" d="M156.762,399.927c-26.027,0-44.204-14.671-44.204-35.676  c0-26.237,27.362-53.399,60.995-60.547c5.413-1.15,10.779-1.734,15.947-1.734c1.341,0,4.619,0.146,4.928,0.146  c8.598,0,15.594-7.084,15.594-15.79V153.861c0-9.64,7.859-19.153,17.519-21.207l153.84-32.7c1.208-0.256,2.411-0.387,3.575-0.387  c7.718,0,13.108,5.539,13.108,13.469v191.545c0,20.523-28.379,51.741-60.995,58.675c-5.417,1.151-10.785,1.735-15.956,1.735  c-26.026,0-44.203-14.671-44.203-35.676c0-26.236,27.362-53.398,60.995-60.547c5.414-1.15,10.779-1.734,15.947-1.734  c1.341,0,4.619,0.146,4.928,0.146c8.598-0.001,15.594-7.085,15.594-15.79v-55.065c0-10.134-7.203-17.489-17.128-17.489  c-1.444,0-2.928,0.16-4.411,0.475l-98.42,20.919c-11.415,2.426-20.702,13.704-20.702,25.139c0,0-0.007,109.443-0.007,113.693  c0,24.313-28.372,52.196-60.988,59.13C167.301,399.343,161.933,399.927,156.762,399.927z"/>
<g>
</g>
<g>
</g>
<g>
</g>
<g>
</g>
<g>
</g>
<g>
</g>
<g>
</g>
<g>
</g>
<g>
</g>
<g>
</g>
<g>
</g>
<g>
</g>
<g>
</g>
<g>
</g>
<g>
</g>
</svg>
