<?xml version="1.0" encoding="utf-8"?>
<!-- Generator: Adobe Illustrator 23.0.3, SVG Export Plug-In . SVG Version: 6.00 Build 0)  -->
<svg version="1.1" id="Layer_1" xmlns="http://www.w3.org/2000/svg" xmlns:xlink="http://www.w3.org/1999/xlink" x="0px" y="0px"
	 viewBox="0 0 512 512" style="enable-background:new 0 0 512 512;" xml:space="preserve">
<style type="text/css">
	.st0{fill:#005891;}
</style>
<title>pdf-handdrawn</title>
<path class="st0" d="M74.9,47.4c-0.2,0.4-0.4,0.8-0.7,1.2C74.4,48.2,74.7,47.8,74.9,47.4z M80.1,39.7c1.3-1.7,2.7-3.3,4.2-4.8
	C82.8,36.4,81.4,38,80.1,39.7L80.1,39.7z M76.7,44.4c-0.6,1-1.2,2-1.8,3C75.5,46.4,76.1,45.4,76.7,44.4L76.7,44.4z M76.7,44.4
	c0.7-1,1.4-2.1,2.1-3.1C78.1,42.4,77.4,43.4,76.7,44.4L76.7,44.4z M80.1,39.7c-0.4,0.6-0.8,1.1-1.3,1.7
	C79.3,40.8,79.7,40.2,80.1,39.7L80.1,39.7z M85,502.1c-10.5-7-19.1-16.7-24.9-28c-3.5-6.8-5.8-14-7-21.5c-0.6-3.9-1-7.8-1-11.8
	c0-3.4,0-6.8,0-10.2c0.1-60.2,0.1-120.8,0.2-180.5c0-25,0-38.5-0.3-44c-0.7-12.6-1.4-24.3-2.2-33.8c-0.1-1.6-0.3,7.6-0.4,15.6
	c-0.5,39.8-0.2,86-0.2,129.3c0,33.3,0.2,37.7,0.6,21.7c0.1-4.8,0.3-0.9,0.5-0.9c0,11.5,0,27,0,33.6l-0.6,32.6l0.3,25.4
	c0,4.3,0.1,8.5,0.1,12.7c0.1,5,0.7,10,1.8,14.9c4.5,19.5,16.7,36.4,33.8,46.8c4.4,2.7,9.2,4.9,14.2,6.6c6.2,1.9,7.2,1.6,4,0.7
	C97.2,509.1,90.9,506,85,502.1z M461.4,410.1l-1,22.1c-0.2,3.5-0.3,6.6-0.6,10c-0.2,3.5-0.8,7-1.6,10.4c-2.4,13.7-9,26.2-18.8,36
	c-10.3,10.1-24.2,16.8-37.4,18.4c-10,1.2-17.7,0.5-25.4,0.7l-21.8,0.1l-41.5,0.2l-136.7,0.5l-16.5,0.6c-2.1,0.1,0.4,0.3,4.9,0.4
	c14.1,0.3,40.1,0.6,43.4,1c6.7,0.7,44.9,0.5,70.9,0.6c22.1,0.1,34.7,0,43.4-0.4c9.1-0.3,23.3-0.7,39.7-0.9l18.7-0.1h10.9
	c3.5-0.1,6.6-0.2,8.4-0.4c24-2.2,45.8-18.5,55-39.6c1.2-2.6,2.2-5.3,3.1-8c0.7-2.8,1.5-5.4,2-8.2c0.5-2.7,0.8-5.5,0.9-8.2l0.2-4.1
	v-3.6C461.5,428,461.4,418.8,461.4,410.1L461.4,410.1z M49.8,83.5l0.2-9.1c0.1-3.7,0.5-7.3,1.1-10.9c1.2-7.2,3.4-14.2,6.8-20.7
	c6.5-13.1,16.8-23.9,29.5-31.1c6.3-3.6,13.1-6.3,20.1-7.8c3.5-0.8,7.1-1.3,10.6-1.6l5.4-0.2c1.8-0.1,3.1,0,4.7,0l8.8-0.1l-8.8,0.5
	l78.5,0.2L234,2.4c41.2-0.6,23-1.6-28.5-2.1l-41.8-0.3L142.4,0h-10.7c-3.7,0-6.7-0.1-11.5,0.2c-17.8,0.9-34.8,8.2-47.7,20.6
	c-12.9,12.3-21,28.7-23,46.3c-0.2,2.3-0.3,4.6-0.4,6.9s0,3.9,0,5.9v11.4c0,7.7,0,15.3,0,23l0.2,5.1L49.8,83.5z M329,181.7
	c3.7,1.5,7.5,2.6,11.4,3.3c1.3,0.2,0.2-0.2-2.9-1.2c-1.8-0.6-0.3-0.4-0.2-0.5c4.3,1.1,8.7,1.9,13.1,2.3c5.9,0.6,8.7,0.7,11.7,0.9
	l32.5-0.7c1.7,0,3.5-0.1,4.2-0.2c7-0.7-10.1-1.6-28-1.6H356c-5.8-0.1-11.7-0.8-17.3-2.3c-11.3-2.8-21.8-8.4-30.4-16.3
	c-7.2-6.5-10-11-11.5-12.5c-3-3.3-5.9-6.9-8.4-10.6c-0.4-0.5,1,2.9,2.4,5.8C297.8,162.5,312.6,175.6,329,181.7z M462.8,178.3
	c0.1,0.5-0.6,0.3-0.8,0.4l-4.2,1l-2.3,0.5v2.1l0-2.1h0c-0.1,8.1-0.1,16.2-0.2,24.4c0,59.2,0,118.3,0,177.6c0,7.8,0,16,0,23.4
	c-0.1,30.5-0.1,39.2,0.2,35.8c0.2-1.6,0.3-0.6,0.3,2.2c0,4.3-0.6,8.6-1.6,12.8c-2.3,11-10.2,24.4-19.7,32.4
	c-6.2,5.5-13.4,9.7-21.2,12.4c-7.8,2.8-16.6,3.7-24.6,3.6l-49,0.2l-100.1,0.4l-81.7,0.2h-20.4c-6.8,0-13.4,0.3-20.7-0.4
	c-26.9-3.1-49-22.5-55.5-48.7c-0.8-3.1-1.3-6.2-1.7-9.3c-0.1-3.1-0.4-6.4-0.3-9.2c0-5.8,0-11.7,0-17.5c0-11.6,0.1-23.2,0.1-34.9
	c0-23.3,0-46.8,0-71.2c0-6.3,0.1-21.6,0.3-25.2c0.2-6.9,0.5-8.4,0.8-12.6c0-9.3,0.1-20.4,0.1-33.5c0.1,3,0.1,5.4,0.2,10.7
	c-0.1-27.3-0.1-50.5-0.2-73.3s0.2-44.9,0.3-69.8l-0.4-4.3c0-7.8,0-15.6,0-24.4c0-2.2,0-4.5,0-6.8s0.2-5,0.5-7.6
	c0.7-5.7,2.1-11.2,4.2-16.5c-3.9,10.5-3.7,15.4-3.4,12.2c0.3-0.7,2.2-6.8,0.8,0.1c-1.5,5.6-0.7,26.4-0.8,41.1
	c0,15.8,0,22.6,0.3,27.2c0.2,3.3,0.3,24.2,0.5,37.4c0.4,32.3,1,21.7,1.5,23.7c0.2,0.7,0.4-1,0.6-1.9c0-2,0.1-10.9,0.2-26.9
	c0.1,17.3,0.2,29.3,0.3,44.5L65,206c0,6.8,0,17.2,0,19.9l1.1,61c0.6,21.5,1.2-25.4,1.3-61.8c0-46,0-93,0.1-139.5
	c0-9.8-0.2-18.7,2.6-27.4c1.1-3.3,2.5-6.5,4.2-9.6c-4.1,7.8-6.3,16.4-6.5,25.3v46.6l0.2-0.1c0-10.3,0-20.7,0.1-31
	c0-5.1,0-9.8,0-14.3l0.4-6c0.3-1.9,0.6-3.8,0.9-5.6c1.4-6.4,3.9-12.5,7.6-17.9c3.9-5.9,8.8-11.1,14.5-15.3
	c8.4-6.2,18.3-9.9,28.7-10.7c3.5-0.3,7.7-0.3,12-0.3h13.1h26.8c17.7,0,34.2,0.1,45.5,0.4c8.5,0.2,1.4,0.6,1.4,0.8h82.6v-4.8h-0.5
	c-1.8,0-3.1-0.1-4-0.2c-1.9-0.1-2.2-0.4-0.9-0.6c2.3-0.5,3.5-1,5.5-1.6l6.3-0.1c3.4,3.2,5.4,4.9,4.5,3.4L353,57.3l-0.5-0.5
	l60.5,60.5c0.3-0.4,7.4,6.6,12.5,11.5l23.9,23.2c2.5,2.4,3.9,4.7,6,7c0.5,0.6,0.8,1.1,1.2,1.7c0.1,0.7,0.1,1.6,0.1,2.3l0.2,4.8
	l0.2,4.8c0,0.8,0.1,1.6,0,2.4l-1.6,0.2v2.3l1.7-0.3l1.5-0.3c0.4-0.2,1.3,0.1,1.1-0.7l-0.1-3.5l-0.3-6.9c-0.2-2.2,0.2-4.9-0.9-6.1
	l-4.6-6.7l-6.8-6.6l-5.6-5.6l-5.6-5.7L418,117.2l-3.7-5.3l-4.4-5.9c8,8,18.2,17.7,27.7,27.9c1.4,1.5,7.1,7.1,8.7,8.6l8.3,7.7
	l1.9,1.8c0.5,0.6,0.8,1.1,1.1,1.6l1.9,2.8l1.8,2.7c0.3,0.5,0.6,1,0.7,1.5c0.3,0.6,0.4,1.3,0.3,1.9c0.2,3.2,0.3,7.3,0.4,12.3
	c0,0.7,0,1.5,0,2.3L462.8,178.3z M389.4,171.8l-9.7,0.1l12.6,0.1l15.5-0.4c-6-0.3-19-0.3-31.7,0.1h13L389.4,171.8z M419.8,158.8
	l10-0.1c1.5,0,1.1-0.1,1.2-0.1v-0.1v-0.1c0,0,0,0,0.1,0s0.3-0.1,0.3-0.5c0,0,0,0,0-0.1l-0.8-0.9l-1.9-1.9l-4.3-4.4l-9.1-9.4l0.5,0.7
	c-2.3-1.7-4.4-3.6-6.5-5.6c-6.2-6-12.7-12.5-18.7-19.1c-4.3-4.7-11.6-12-18.4-19l2.5,1.3c-19.4-19.6-10.9-12.3-9.6-12l-21-20.8
	c-10.4-10.5-21.5-21.5-30.2-31l-10-10l-0.1-0.1c0.3,12.7,1.1,6.3,1.4,19.5l0.3-13.8c0.3,4.5,0.5,9.9,1,7.3c0.4-2,0.8,6.5,1.3,9.3
	c0.2,1.1,0.4-1.2,0.6-0.5c0.5,1.6,0.7,3.2,0.6,4.8c0.1,7.3,0.8,10.8,0.3,22.3c0,1,0,3.8,0,5.4c0,9.4,0.1,18.6,0.1,27.8v3.4l0.1,2.7
	c0,1.8,0.2,3.6,0.5,5.3c0.5,3.5,1.4,7,2.7,10.4c6,14.8,19.2,25.5,35,28.3c2.9,0.5,5.8,0.7,8.7,0.7h11.3L419.8,158.8z M305.5,83.7
	c0-2.4,0.1-4.9,0.1-7.3l-0.2-0.9l-0.2,22.5l-0.1,11.2v2.8l0.1,2.3c0,1.6,0.1,3.1,0.4,4.7l0.4,1.8c0-1.7-0.3-3.1-0.3-5l-0.2-4.3v-5.2
	c0-3.4,0-6.9,0-10.3C305.5,91.8,305.5,87.8,305.5,83.7z M302.9,24.3l0.3-0.1l0,0L302.9,24.3L302.9,24.3z M303,25l0.5,3.2l0.1-2.5
	L303,25z M450.8,171.5h-1.2c0,0.1,0,0.2,0,0.3C450,171.7,450.4,171.7,450.8,171.5L450.8,171.5z M426,171.6c0.1,0,0.2,0.1,0.3,0.1
	H442h0.4c0-0.1,0-0.2,0-0.2h-13L426,171.6z M449.6,178.5c0.5-0.1,1-0.2,1.5-0.3l1.3-0.2c0-0.8,0-1.7,0-2.5l-2.8,0.3
	C449.6,176.8,449.6,177.7,449.6,178.5L449.6,178.5z M302.3,20.5h5.2l-5.1,0.3l0.2,1.3c0.5-0.2,1.1-0.3,1.7-0.3
	c0.9,0.7,1.8,1.4,2.6,2.2l7.6,7.4c6.4,6.3,14.6,13,12.7,10.4c-2.7-3.8,7.1,5.1,19.5,17.6l20.7,20.7c1.5,1.5,3.2,3,4.2,3.8
	c3.8,3.2,17.3,16.1,24.6,23.7c1.4,1.5,3.3,3.4,3.9,4.1c4.6,5.3,4.5,5.2,12.1,12.2l-10-11.9c-1.1-1.3-0.7-1.2-1-1.8l14,14.1l4.6,4.8
	l28.4,28.3c1,1.2,2.5,2.1,3,3.4l0.2,4.7l0.2,4.7v0.7c0.4-0.4,0.6-0.8,0.7-1.4c0-0.5,0-0.9,0-1.3c-0.1-0.5-0.2-1.1-0.3-1.6l-0.1-3.8
	c0-0.8,0-1.6-0.2-2.4L419.2,128l-68.4-68.2c-11-10.9-19.8-19.8-26.7-26.7l-12-11.9l-5.5-5.5l-5.1-0.1L302.3,20.5z M73.4,119.9
	c0.1,2.3,0.1,4.6,0.2,6.8c0.1-6.1,0.4-11.3,0.4-18.4c0-10.3,0-20.7,0-31.2c-0.2-8.8,1.8-17.6,5.9-25.5c4.9-9.2,12.5-16.7,21.7-21.4
	c5.5-2.8,11.5-4.6,17.7-5.2l2.4-0.3c-19,0.7-37,13.4-44.2,31.1c-1.8,4.4-3,9-3.6,13.8c-0.2,2.5-0.4,4.5-0.3,7.4v8.6L73.4,119.9z
	 M64.7,446.6c0.2,2.1,0.6,4.2,1,6.2C65.2,450.8,64.9,448.7,64.7,446.6z M131.1,501c-4.6-0.2-10.4,0.2-17-1.1
	c-7.5-1.4-14.7-4.1-21.1-8.1c-12.3-7.3-22.9-21-26.8-37c2.3,10.1,7.2,19.4,14.3,27l0.6,0.7c-2.4-2.5-4.6-5.2-6.5-8
	c-3.5-5.3-6.2-11-7.9-17.1c2.1,7.7,5.7,14.9,10.6,21.1c2.9,3.7,6.3,7.1,10,10c6.3,4.9,13.5,8.5,21.2,10.5
	C115.7,501,123.2,501.2,131.1,501z M167.9,488.1l30.5-0.1c51.5-0.4,118.1-0.3,159.1,0.3l34,0.2c5.3,0,10.7-0.7,15.8-2.3
	c4.9-1.6,9.5-3.9,13.6-7l-1.7,1l3.5-2.8l3-3c2.6-2.8,4.9-5.9,6.8-9.1c2.7-4.4,4.6-9.1,5.6-14.1c1.1-5.2,1.2-9.7,1.1-17.2
	c0.1-13.7,0.2-27.5,0.3-41.1c0.1-19.4,0.3-51,0.4-80.7l0.8,8.1c0.1-84,1-50,1.7-46.6c-0.1-32.2-0.1-61.5-0.2-90.2c0-0.6,0-1.3,0-1.9
	c-2.7,0-5.3-0.1-8-0.4c-0.4-0.1-1.6-0.2-3.2-0.3l-3.8-0.2l-8.4-0.5c-1.5-0.1-2.3-0.3-1.6-0.4c1.5-0.3,4.2-0.5,5.4-0.6l13.3-0.1
	c2.1-0.1,4.3,0,6.4,0v-2.7l-52.1,0.6h-11.3l-22.9-0.1c-8.3-0.1-16.5-1.7-24.3-4.7c-2.8-1.1-5.4-2.4-7.9-4c-1.2-0.9-2.3-1.9-3.3-2.9
	c-3.2-2.2-6.1-4.6-8.9-7.3l2.9,2.3c-6.4-5.4-11.7-12.1-15.5-19.6c-3.6-7.2-5.7-14.9-6.3-22.9l-0.4-1.4c-0.4-5.4-0.1-10.4-0.2-18.2
	l0.1,4c0.3-0.2,0.6-2.2,0.8,0c0.2,1.8,0.1,8.4,0.5,13.5c0.1,3,0.5,6.1,1.4,9c0.2,0.5,0.8,2.5,1.5,4.8c0.7,2.3,1.9,4.9,2.7,6.9
	c2.4,4.8,3.6,6.2,4.1,6.5s0.4-0.4,0.8-0.3s0.1-0.5,0.2-0.8c-1.4-2.5-2.6-5.1-3.5-7.8c1.9,4.4,4.2,8.5,7.1,12.3l-0.8-0.5
	c1.2,1.7,2.5,3.4,3.9,5c4.4,4.7,9.7,8.6,15.5,11.5c6.1,2.9-6.8-4.3-13.8-13.2c-9.3-11.1-14.1-25.2-13.6-39.7
	c0-6.3,0.1-12.6,0.1-19.2l0.1,15.3c0,5.2,0,10,0.8,14.7h0.1c-0.4-3.1-0.6-6.3-0.6-9.5c0-6.7,0-11.6,0.3-15.8
	c0.3-3.8,0.3-10.1,0.3-18.7c-0.1-10.4-0.3-24.7,0.3-32.1c0.2-2.8,0.6-0.5,0.8-0.5V24.7l-1.4,0c0.4,0,1.1-0.1,1.4-0.1V24
	c-1.1-0.1-2.5-0.2-2.9-0.3s-0.7-0.2-0.1-0.3c0.3-0.1,0.8-0.1,1.4-0.2c0.4,0,1.1-0.1,1.6-0.1v-2.3l-36.6,1.8l17.7,0.1
	c-52.8,0.2-26.6,1.1-69.8,1.4l41.9,0.3c-13.8,0.3-30.1,0.5-22.1,1c6.3,0.4-19.9,0.8-28.5,1.3c-3.5,0.2,3.6,0.4,1.7,0.6
	c-4.9,0.5-9.8,0.7-14.6,0.6c-22.2,0.1-33.1,0.8-67.8,0.4c-4.3,0.1-8.5,0.8-12.6,2C100.2,33.5,91.1,40.4,85,49.7
	c-3,4.5-5.1,9.6-6.3,14.9c-1.2,5.4-1.3,10-1.3,17.7c-0.1,28-0.2,56-0.2,84.6c0,36.3-0.1,77.8-0.1,116.6c0.1,45.9,0.2,91.4,0.3,137.3
	v19.9c0,5.2,0.9,10.3,2.4,15.2c3.3,9.8,9.7,18.3,18.3,24.2c4.3,2.8,9,5,13.9,6.4c2.5,0.7,5,1.2,7.5,1.5c2.6,0.1,4.9,0.3,8.5,0.3
	L167.9,488.1z M452.4,181l-2.8,0.7c0,26.9,0,54,0,80.8c0,6.4,0.2,13.3,0.3,17.4c0.4,14.9,0.9,72,0.8,104.2c0,6.3-0.1,14.3-0.1,17.4
	c-0.2,10.7-0.4,16-0.4,22.5c0,3.3,0,6.8,0.1,11.5s0.3,10.3-1,17.6c0.4-1.9,0.7-3.9,1.1-5.8l0.5-5.9c0.1-4.1,0.2-8.2,0.4-12.2
	c0.2-8,0.5-15.7,0.7-22.6c0-2,0.2-3.9,0.6-5.9V431c0,5,0.1,10.2-0.3,15.1c-0.4,4.9-1.5,9.8-3.1,14.5c-2.2,6.2-5.4,12-9.5,17.1
	C430,490,416,498,400.6,500c-5.1,0.6-10.3,0.8-15.5,0.6l-62.8,0.1l-125.5,0.1l-10.2,0.1c0.3,0.1,0.7,0.1,1,0.1l200.3,0.1
	c10.2,0.2,20.4-1,29.6-5.5c9.3-4.2,17.3-10.8,23.3-19c5-6.7,8.5-14.3,10.3-22.4c1.1-5,1.6-10.1,1.6-15.2c0.1-7.3,0.4-8.9,0.8-6.3
	c-0.1-22.6-0.2-40.1-0.4-58.1c0-12.1-0.1-24.8-0.1-37.5C452.9,280.9,452.7,230.5,452.4,181z M281.8,122c-0.3-2.4-0.4-4.8-0.4-7.2
	c-0.1-2.6,0-4.5,0.1-6.4l0.5-11.8l0.9-23.6l-0.1-2.9l0.4,2.9c0.1-9.1,0.2-17.3,0.2-25.7c0-2.8-0.1-6.8-0.2-9
	c-0.6-13.5-1.6-7.5-2.1,9.4c-0.5,18-0.3,37.2-0.4,55.8c0,2.5,0,5,0,7.5c0.1,2.7,0.2,6.1,0.5,9.1L281.8,122z M235.2,261.4
	c-0.3,0.9-0.6,1.8-0.7,2.6C234.6,263.1,234.9,262.3,235.2,261.4z M201.3,420.2c-1.3,0.5-2.6,1-3.9,1.4c-0.6,0.2-1.4,0.4-2.5,0.6
	l-2.9,0.5c-3.8,0.6-7.7,0.3-11.4-0.6c-4-1.2-7.3-4-9.1-7.8c-1.7-4.1-2.3-8.5-1.8-12.9c0.2-1.1,0.2-2.3,0.5-3.5
	c0.3-1.4,0.5-2.2,0.7-3c0.5-1.6,1-3.1,1.7-4.6c1.3-2.9,2.9-5.6,4.9-8.1c7.9-10.1,18.4-14.9,27.3-18.9l10.3-4.3c2.3-1,4.8-2,7.3-3
	c0.9-2.2,1.8-4.5,2.7-6.6c0.6-1.7,1.3-3.4,2.2-5c-0.6,3.1-1.4,6.8-2.4,10.7c2.7-1,5.3-1.9,8-2.9l0.9-2.3l8.6-23.2l0.3-1.5l3.3-9.1
	c-1.1-1.7-2-3.4-2.9-5c-0.5-0.9-1.3-2.3-2.1-4l-7.6,19.6l0.5-1.7l5.5-15.3l1.2-3.4c-1.8-3.6-3.4-7.3-4.6-11.1
	c-1.6-4.9-2.6-9.9-3.1-15c0.5,3,1.2,5.9,2,8.8c-0.9-3.5-1.3-7.1-1.4-10.7c0.1-1.5,0.1-0.3,1.1,4.5c0.5,2.2,0.2-0.3,0.4,0.1
	s0.5,2,1.6,5.6c1.4,4.8,3.2,9.6,5.4,14.1l2-5.6c-0.1-0.2-0.2-0.4-0.3-0.7c-2.4-5.9-3.9-12.1-4.3-18.5c-0.2-3.6-0.1-4.5,0.3-2.8
	c0.4,2,1,3.9,1.8,5.8c1.3,8.5,3.8,13.6,3.4,11.4c0.1,0.4,0.3,0.7,0.4,1.1c1.5-4.1,2.9-8,4-11.7c1.3-3.9,2.1-7.9,2.3-12
	c0-0.8,0-2,0-2.3v-0.1c0-0.1,0-0.2,0-0.2c0-0.1-0.1-0.3-0.1-0.4c-0.3-0.3-0.6-0.2-0.8-0.4s-0.3-0.7,0.6-1.5c0.1-0.1,0.2-0.1,0.4-0.1
	c0.5,0,0.9,0.2,1.1,0.6c0.2,0.4,0.4,0.7,0.4,1.1c0,0.2,0.1,0.4,0.1,0.6v0.4c0,0.4,0.1,0.8,0.1,1.2c-0.1,3.9-0.7,7.8-1.8,11.5
	l0.4-2.7l-0.6,2.7c-1.4,4.6-3.4,9.7-5.5,14.9c2.1,5.4,4.8,10.6,7.9,15.5l3.5-9.6l-3.4,9.8l0.2,0.4c0.7-1.9,1.4-3.6,2.1-5.2
	c1.5-3.9,4-10,6.9-19.2c1.7-5.5,3.3-12.5,2.9-19.6c-0.5-8.3-4.3-15.7-8.6-18.1c-3.4-1.7-0.4-0.7-0.4-0.9c-1.2-0.6-2.5-0.9-3.9-1
	c-6.1,0.1-11.3,4.8-14.3,10.6c-3.1,6.6-3.3,11.7-3.3,16.9c-0.4-2.9-0.4-5.8-0.2-8.7c0.1-0.7,0.1-1.5,0.3-2.2c0.2-1,0.4-1.9,0.6-2.8
	c0.5-1.9,1.2-3.7,2.1-5.5c-0.5,0.9-1,1.7-1.4,2.6c-0.5,1.2-1,2.4-1.4,3.7c1-3.4,2.6-6.6,4.7-9.5c1.3-1.6,2.7-3.1,4.3-4.3
	c2.3-1.4,3.2-3.1,8.9-3.5c1.6,0,3.2,0.4,4.6,1c-1.4-0.7-3-1.1-4.6-1.3c-4.7-0.2-9,2.2-12.6,5.6c2.3-2.6,5.3-4.5,8.6-5.6
	c2.4-0.7,3.6-0.7,1.5-0.7c-1.3,0.2-0.1-0.4,2.6-0.5c2.2,0,4.4,0.5,6.4,1.5c1.9,1,3.5,2.2,5,3.7c1.4,1.4-1.2-1.8-0.4-1.1
	c1,0.9,2.7,1.9,5.1,7.2c1.3,3.1,2.3,6.4,2.8,9.8c0.2,1.8,0.3,2.8,0.4,3.9s0.1,2.2,0,3.3c-0.2,5.5-1.2,10.8-3,16l-2,6
	c-2.9,8.5-5.8,16.7-8.8,24.8c6,8,12.9,15.4,19.7,22.8c5.8-1.1,12.7-2.3,18.6-3.1h-0.9c3.2-0.8,6.5-1.4,9.8-1.8
	c5.4-0.5,11.9-0.6,18.9,2c6.6,2.5,13.6,7.8,16.3,16.9c1.1,4,1.1,8.1,0.1,12.1c-1.3,5-4.4,9.4-8.8,12.2c-1.9,1.2-4,2-6.2,2.6
	c-1.6,0.4-3.2,0.7-4.8,0.9c-3,0.4-6.1,0.5-9.2,0.3c1.3-0.1,2.6-0.3,3.9-0.5c-4.4,0.3-8.8-0.4-12.9-1.9c-2.8-1.2-5.3-2.9-7.5-4.9
	c-2.9-2.8-3.6-3.8-3.7-4.1c-0.3-0.6,2.5,1.9,3.3,2.2c-2.6-2.5-4.3-4.5-6.2-6.5l-5.5-5.9l-3.7-4c-1.7,0.4-3.2,0.7-4,0.9
	c-5.5,1.4-10.3,2.9-13.3,3.9s-7.1,2.2-14.4,4.4c-2.5,0.7-5.3,1.6-8,2.5c-2.8,6.9-5.9,14-9.4,20.6c-4,7.5-8.5,15.6-16,22.7
	C210.6,415.3,206.2,418.2,201.3,420.2z M230.7,371.5l-2,0.7c-2.1,5.2-4.3,10.3-6.1,14.1C219.7,392.4,225.9,382.2,230.7,371.5
	L230.7,371.5z M224.2,374l0.3-0.6l0,0L224.2,374z M225.5,370.5l-0.4,1l0.1,0c0.4-0.8,0.7-1.6,1.1-2.5c-2.8,1.1-5.5,2.1-8.3,3.3
	c-0.4,0.9-0.9,1.8-1.3,2.7c2.8-1.2,5.6-2.3,8.3-3.4C225.2,371.2,225.4,370.9,225.5,370.5L225.5,370.5z M232.3,362.9l-0.1,0.2
	c0.7-0.3,1.5-0.5,2.2-0.7l0.1-0.3L232.3,362.9z M255.9,318l-0.2-0.3l-1.1,3.1l0.3,0.2L255.9,318z M254.3,321.6l0.3,0.3l0.2-0.5
	c-0.1-0.1-0.2-0.3-0.2-0.4L254.3,321.6z M252.7,325.9l-2.6,7.1l-0.7,2.3c0.8-2,1.6-3.7,2.5-6.1l1.1-3L252.7,325.9z M249.6,321.8
	l-3.6,10h0.1l3.6-9.9L249.6,321.8z M247.9,347.7c6.9-2,13.5-3.6,19.2-4.8c-4.2-4.6-8.3-9.3-12.2-14.2
	C252.6,334.9,250.3,341.2,247.9,347.7L247.9,347.7z M280.5,349.5l0.3,0.3c0.8-0.2,1.6-0.4,2.4-0.5h0.1L283,349L280.5,349.5z
	 M313.2,348c-4.2,0-8.5,0.3-12.6,1.1c-4.1,0.6-8.3,1.5-12.5,2.3l1.6,1.7c8.2-1.3,18.1-3.4,24.8-2.7c1.8,0.4,3.6,1.2,5.2,2.1
	c1.6,0.9,3,2.2,4.1,3.7c-2.7-2.9-7.8-4.6-14-4.2c-5.6,0.3-12.3,1.5-18.8,2.5c3.9,4.4,7.9,8.8,12,12.7c3.1,2.7,7.1,4.1,11.2,4
	c4.1-0.1,8.8-0.3,12-2.1c2.7-1.8,4.3-4.8,4.2-8c0-2.5-0.8-5-2.3-7c-2.1-2.7-5-4.7-8.2-5.7c-1.8-0.5-2.3-0.5-1.7-0.3
	C319,348.8,316.8,348.1,313.2,348L313.2,348z M285.7,351.8l-2.6,0.5l1.5,1.7l2.7-0.5L285.7,351.8z M243.6,359.1l-0.1,0.3
	c10.3-3.2,20.7-6,31.3-8.3l-0.3-0.4C264,353.1,253.7,355.9,243.6,359.1L243.6,359.1z M230.5,367.4c-0.3,0.8-0.6,1.6-0.9,2.5l2.2-0.8
	c0.4-0.8,0.7-1.6,1-2.4v-0.1C232.1,366.8,231.3,367.1,230.5,367.4L230.5,367.4z M278.5,355.3l-1.5-1.6c-11.7,2.6-23.5,5.9-35.2,9.8
	l-0.9,2.3c6-2,12-3.9,17.8-5.6C265.5,358.4,271.4,356.8,278.5,355.3L278.5,355.3z M285.5,348.6l0.3,0.3c6.3-1.2,12.7-2.3,19.1-3.1
	c7.2-0.9,12.1-0.1,14.6,0.8s2.9,1.4,2,1.3c7.5,2.8,11.7,9.6,10,16.1c-0.5,2.7-2.2,5-4.5,6.5c-1.6,0.9-3.4,1.5-5.2,1.8
	c-5.1,0.8-10.4,1.1-15.2-0.8s-8-6-11.2-9.4l-6.8-7.3h-0.1c-0.5,0.1-1.5,0.3-2.6,0.5l9.9,10.9c1.5,1.6,3.1,3.1,4.9,4.4
	c3.2,2.4,7,3.8,10.9,4.2c2.7,0.2,5.4,0.1,8-0.3c1.4-0.2,2.8-0.4,4.1-0.7c1.5-0.3,3-0.9,4.4-1.7c4.4-2.6,5.9-7.8,5.8-11.6
	c-0.1-2.5-0.7-4.9-1.9-7c-1.5-2.7-3.7-5-6.3-6.5c-3.4-2-7.2-3.1-11.2-3.2c6.3,0.8,12.5,4,15.5,8.6c1.1,1.7,0.7,1.5,0.9,2.1
	c-4-6.8-12.1-9.4-19.3-9.4c-2.4,0-4.9,0.1-7.3,0.4C297.9,346.3,291.7,347.3,285.5,348.6L285.5,348.6z M257.9,320.6l-1,2.7
	c3.1,3.6,9.1,10.5,16.4,18.4l2.4-0.5c-4.2-4.4-9.5-10.2-14-15.7C260.4,323.8,259.1,322.1,257.9,320.6L257.9,320.6z M256.7,315
	l0.2,0.3l2.5-6.9l4.4-12.5c0.9-2.5,1.9-5.1,2.7-7.8l0.2-1.1c-2.6,8.3-5.5,15.5-8.3,23.3L256.7,315z M252.6,313.3l-1.6,4.4l0.2,0.2
	c0.6-1.6,1.1-3.1,1.6-4.4L252.6,313.3z M252.6,313.2c-1.2-1.9-2.4-3.7-3.5-5.6l-1.2,3.7c0.3-0.2,1.3-2.1,0.6,0.2
	c-0.1,0.4-0.4,1.1-0.6,2c1.1,1.6,2.1,3,3.1,4.3L252.6,313.2z M247.3,312.6l1.8-5c-1.8-3-3.3-6.1-4.7-9.3c-0.6,1.6-1.3,3.3-1.9,4.9
	l-0.2,0.5c0.5,1.1,1,2.1,1.6,3.3C244.8,308.8,246,310.7,247.3,312.6L247.3,312.6z M235,351.6l1.7-0.6l2.1-5.4
	c-0.7,2-1.3,3.7-1.9,5.3l2.1-0.7c3.5-9.6,6.9-19.2,10.4-28.8c-1-1.5-2-3-3-4.4c-0.9,2.5-1.9,5.5-2.8,7.9c-1.9,5.3-2.7,7.5-3,9.1
	c-0.3,1.2-2.6,8.2-4.1,12.6C235.8,349,235.3,350.5,235,351.6z M228.3,364.3c-2.7,1-5.3,2-8,3.1l-0.1,0.3c2.7-1,5.3-2.1,8-3
	L228.3,364.3z M214.8,369.6c0.1,0,0.2,0,0.4-0.1c0.6-0.3,1.3-0.5,1.9-0.7l0.1-0.2L214.8,369.6z M184.5,389.6
	c3.3-4.7,7.5-8.6,12.4-11.5c-4.3,2.4-8.2,5.5-11.3,9.3c-3.9,4.7-7.1,11.8-6.2,19.3c-0.5-4.9,0.6-9.9,3-14.2l0.2-0.3
	c-1.8,3.2-2.9,6.7-3.2,10.3C180.4,395,183.2,391.7,184.5,389.6L184.5,389.6z M213.4,392.2c1.2-1.8,3.9-6.3,4.6-7.4
	c1.3-2,1.7-2.4,2.5-3.6c1.1-2.2,2.4-4.8,3.7-7.6c-1.2,0.3-4.6,1.5-8,2.8c-3.5,7.1-7.4,14.1-11.9,19.2c-2.7,3.1-6,5.6-9.8,7.3
	c-0.9,0.4-1.8,0.7-2.7,0.9c-0.3,0.1-0.6,0.1-0.9,0.2c-0.6,0.1-1.2,0-1.7-0.2c-0.4-0.3-0.4-1-0.4-1.4c0-0.6,0.1-1.1,0.4-1.7
	c0.8-2.5,2.2-4.8,3.9-6.8c3-3.2,5.2-4.2,3.1-2.1c-0.4,0.4-1.4,1.5-2.1,2.5c-1.2,1.5-2.2,3.2-2.9,5c-0.3,0.8-0.6,1.6-0.7,2.4
	c0-0.1,0,0.2,0,0.2c0,0.5,0.5,0.5,0.8,0.4c0,0,0.1,0,0.1,0.1c0.6-0.1,1.1-0.2,1.6-0.4c1.4-0.4,2.8-1,4.1-1.7
	c2.5-1.6,4.8-3.6,6.7-5.9c-0.1-0.1,0.5-1-0.4,0c-1.6,1.6-2.3,2-1.7,1.3c1.9-2.1,3.6-4.3,5.1-6.6c2.3-3.6,4.4-7.4,6.3-11.2l-2.6,1
	c-1.5,0.6-2.3,0.8-1.7,0.4c1.3-0.8,3.6-2,4.8-2.6c0.4-0.9,0.9-1.8,1.3-2.7c-2.6,1.1-5.3,2.2-7.8,3.4c-8.6,3.9-16.5,9-20.5,16.2
	c-1.6,2.7-3.1,6.8-3.2,9.4c-0.1,1.5,0,3,0.4,4.4c0.5,1.4,1.9,2.4,3.4,2.3c3.2,0.3,6.4-0.2,9.3-1.5
	C203.3,405,208.9,399.2,213.4,392.2L213.4,392.2z"/>
</svg>
