<svg width="453" height="214" viewBox="0 0 453 214" fill="none" xmlns="http://www.w3.org/2000/svg">
<path d="M313.042 54.222C324.368 54.222 332.302 61.1313 335.778 74.1021C339.235 72.3248 343.782 69.7917 347.956 69.7917C362.006 69.7917 372.551 79.82 372.551 93.3029C372.551 96.131 371.169 100.2 370.265 102.727C377.115 106.492 382.869 112.505 382.869 120.171C382.869 132.306 374.871 142.155 360.424 142.155H265.661C251.328 142.155 243.216 132.306 243.216 120.171C243.216 111.935 248.97 106.378 255.82 102.613C254.916 100.086 253.42 96.1311 253.42 93.3034C253.42 79.8205 264.364 69.6779 278.13 69.6779C282.303 69.6779 286.622 72.211 290.079 73.9883C293.441 61.4711 301.717 54.2297 313.045 54.2297L313.042 54.222Z" fill="url(#paint0_linear)"/>
<path d="M294.93 77.5258C294.93 87.5237 303.035 95.6291 313.033 95.6291C323.031 95.6291 331.136 87.5237 331.136 77.5258C331.136 67.5278 323.031 59.4224 313.033 59.4224C303.035 59.4224 294.93 67.5278 294.93 77.5258Z" fill="#C4C5C2"/>
<path d="M294.93 77.5258C294.93 87.5237 303.035 95.6291 313.033 95.6291C323.031 95.6291 331.136 87.5237 331.136 77.5258C331.136 67.5278 323.031 59.4224 313.033 59.4224C303.035 59.4224 294.93 67.5278 294.93 77.5258Z" fill="url(#paint1_linear)"/>
<path d="M258.732 90.4288H362.18V136.98H258.732V90.4288Z" fill="#C4C5C2"/>
<path d="M346.651 121.48C346.651 130.05 353.599 136.997 362.168 136.997C370.738 136.997 377.686 130.05 377.686 121.48C377.686 112.91 370.738 105.963 362.168 105.963C353.599 105.963 346.651 112.91 346.651 121.48Z" fill="#C4C5C2"/>
<path d="M258.723 93.0431C258.723 103.041 266.828 111.146 276.826 111.146C286.824 111.146 294.93 103.041 294.93 93.0431C294.93 83.0451 286.824 74.9398 276.826 74.9398C266.828 74.9398 258.723 83.0451 258.723 93.0431Z" fill="#C4C5C2"/>
<path d="M258.723 93.0431C258.723 103.041 266.828 111.146 276.826 111.146C286.824 111.146 294.93 103.041 294.93 93.0431C294.93 83.0451 286.824 74.9398 276.826 74.9398C266.828 74.9398 258.723 83.0451 258.723 93.0431Z" fill="url(#paint2_linear)"/>
<path d="M331.137 93.0431C331.137 103.041 339.242 111.146 349.24 111.146C359.238 111.146 367.343 103.041 367.343 93.0431C367.343 83.0451 359.238 74.9398 349.24 74.9398C339.242 74.9398 331.137 83.0451 331.137 93.0431Z" fill="#C4C5C2"/>
<path d="M331.137 93.0431C331.137 103.041 339.242 111.146 349.24 111.146C359.238 111.146 367.343 103.041 367.343 93.0431C367.343 83.0451 359.238 74.9398 349.24 74.9398C339.242 74.9398 331.137 83.0451 331.137 93.0431Z" fill="url(#paint3_linear)"/>
<path d="M318.369 75.0667C336.883 75.0667 351.829 90.1732 351.829 108.687C351.829 120.95 344.849 131.124 335.018 136.974H301.559C291.728 131.124 284.749 120.788 284.749 108.526C284.749 90.0119 299.855 75.0667 318.369 75.0667Z" fill="#C4C5C2"/>
<path d="M318.214 74.9117C336.773 74.9117 351.835 89.9737 351.835 108.532C351.835 120.824 344.879 131.117 335.025 136.98H301.404C291.549 131.117 284.594 120.824 284.594 108.532C284.594 89.9737 299.656 74.9117 318.214 74.9117Z" fill="url(#paint4_linear)"/>
<path d="M346.651 121.48C346.651 130.05 353.598 136.997 362.168 136.997C370.738 136.997 377.685 130.05 377.685 121.48C377.685 112.91 370.738 105.963 362.168 105.963C353.598 105.963 346.651 112.91 346.651 121.48Z" fill="url(#paint5_linear)"/>
<path d="M274.175 116.226C274.175 127.652 283.439 136.916 294.866 136.916C306.292 136.916 315.556 127.652 315.556 116.226C315.556 104.799 306.292 95.5355 294.866 95.5355C283.439 95.5355 274.175 104.799 274.175 116.226Z" fill="#C4C5C2"/>
<path d="M274.175 116.226C274.175 127.652 283.439 136.916 294.866 136.916C306.292 136.916 315.556 127.652 315.556 116.226C315.556 104.799 306.292 95.5355 294.866 95.5355C283.439 95.5355 274.175 104.799 274.175 116.226Z" fill="url(#paint6_linear)"/>
<path d="M271.042 5.22198C282.368 5.22198 290.302 12.1313 293.778 25.1021C297.235 23.3248 301.782 20.7917 305.956 20.7917C320.006 20.7917 330.551 30.82 330.551 44.3029C330.551 47.131 329.169 51.1997 328.265 53.727C335.115 57.4922 340.869 63.5053 340.869 71.1713C340.869 83.3058 332.871 93.1545 318.424 93.1545H223.661C209.328 93.1545 201.216 83.3063 201.216 71.1713C201.216 62.9348 206.97 57.3781 213.82 53.6132C212.916 51.0861 211.42 47.1311 211.42 44.3034C211.42 30.8205 222.364 20.6779 236.13 20.6779C240.303 20.6779 244.622 23.211 248.079 24.9883C251.441 12.4711 259.717 5.22972 271.045 5.22972L271.042 5.22198Z" fill="url(#paint7_linear)"/>
<path d="M252.93 28.5258C252.93 38.5237 261.035 46.6291 271.033 46.6291C281.031 46.6291 289.136 38.5237 289.136 28.5258C289.136 18.5278 281.031 10.4224 271.033 10.4224C261.035 10.4224 252.93 18.5278 252.93 28.5258Z" fill="#C4C5C2"/>
<path d="M252.93 28.5258C252.93 38.5237 261.035 46.6291 271.033 46.6291C281.031 46.6291 289.136 38.5237 289.136 28.5258C289.136 18.5278 281.031 10.4224 271.033 10.4224C261.035 10.4224 252.93 18.5278 252.93 28.5258Z" fill="url(#paint8_linear)"/>
<path d="M216.732 41.4288H320.18V87.9804H216.732V41.4288Z" fill="#C4C5C2"/>
<path d="M304.651 72.4799C304.651 81.0496 311.599 87.9971 320.168 87.9971C328.738 87.9971 335.686 81.0496 335.686 72.4799C335.686 63.9102 328.738 56.9627 320.168 56.9627C311.599 56.9627 304.651 63.9102 304.651 72.4799Z" fill="#C4C5C2"/>
<path d="M216.723 44.0431C216.723 54.0411 224.828 62.1464 234.826 62.1464C244.824 62.1464 252.93 54.0411 252.93 44.0431C252.93 34.0451 244.824 25.9398 234.826 25.9398C224.828 25.9398 216.723 34.0451 216.723 44.0431Z" fill="#C4C5C2"/>
<path d="M216.723 44.0431C216.723 54.0411 224.828 62.1464 234.826 62.1464C244.824 62.1464 252.93 54.0411 252.93 44.0431C252.93 34.0451 244.824 25.9398 234.826 25.9398C224.828 25.9398 216.723 34.0451 216.723 44.0431Z" fill="url(#paint9_linear)"/>
<path d="M289.137 44.0431C289.137 54.0411 297.242 62.1464 307.24 62.1464C317.238 62.1464 325.343 54.0411 325.343 44.0431C325.343 34.0451 317.238 25.9398 307.24 25.9398C297.242 25.9398 289.137 34.0451 289.137 44.0431Z" fill="#C4C5C2"/>
<path d="M289.137 44.0431C289.137 54.0411 297.242 62.1464 307.24 62.1464C317.238 62.1464 325.343 54.0411 325.343 44.0431C325.343 34.0451 317.238 25.9398 307.24 25.9398C297.242 25.9398 289.137 34.0451 289.137 44.0431Z" fill="url(#paint10_linear)"/>
<path d="M276.369 26.0667C294.883 26.0667 309.829 41.1732 309.829 59.6873C309.829 71.9495 302.849 82.1242 293.018 87.9742H259.559C249.728 82.1242 242.749 71.7882 242.749 59.526C242.749 41.0119 257.855 26.0667 276.369 26.0667Z" fill="#C4C5C2"/>
<path d="M276.214 25.9117C294.773 25.9117 309.835 40.9737 309.835 59.5323C309.835 71.824 302.879 82.1165 293.025 87.9805H259.404C249.549 82.1165 242.594 71.824 242.594 59.5323C242.594 40.9737 257.656 25.9117 276.214 25.9117Z" fill="url(#paint11_linear)"/>
<path d="M304.651 72.4799C304.651 81.0496 311.598 87.9971 320.168 87.9971C328.738 87.9971 335.685 81.0496 335.685 72.4799C335.685 63.9102 328.738 56.9627 320.168 56.9627C311.598 56.9627 304.651 63.9102 304.651 72.4799Z" fill="url(#paint12_linear)"/>
<path d="M232.175 67.2258C232.175 78.6524 241.439 87.9161 252.866 87.9161C264.292 87.9161 273.556 78.6524 273.556 67.2258C273.556 55.7991 264.292 46.5355 252.866 46.5355C241.439 46.5355 232.175 55.7991 232.175 67.2258Z" fill="#C4C5C2"/>
<path d="M232.175 67.2258C232.175 78.6524 241.439 87.9161 252.866 87.9161C264.292 87.9161 273.556 78.6524 273.556 67.2258C273.556 55.7991 264.292 46.5355 252.866 46.5355C241.439 46.5355 232.175 55.7991 232.175 67.2258Z" fill="url(#paint13_linear)"/>
<g clip-path="url(#clip0)">
<path d="M171.958 5.22198C160.632 5.22198 152.698 12.1313 149.222 25.1021C145.765 23.3248 141.218 20.7917 137.044 20.7917C122.994 20.7917 112.449 30.82 112.449 44.3029C112.449 47.131 113.831 51.1997 114.735 53.727C107.885 57.4922 102.131 63.5053 102.131 71.1713C102.131 83.3058 110.129 93.1545 124.576 93.1545H219.339C233.672 93.1545 241.784 83.3063 241.784 71.1713C241.784 62.9348 236.03 57.3781 229.18 53.6132C230.084 51.0861 231.58 47.1311 231.58 44.3034C231.58 30.8205 220.636 20.6779 206.87 20.6779C202.697 20.6779 198.378 23.211 194.921 24.9883C191.559 12.4711 183.283 5.22972 171.955 5.22972L171.958 5.22198Z" fill="url(#paint14_linear)"/>
<path d="M190.07 28.5258C190.07 38.5237 181.965 46.6291 171.967 46.6291C161.969 46.6291 153.864 38.5237 153.864 28.5258C153.864 18.5278 161.969 10.4224 171.967 10.4224C181.965 10.4224 190.07 18.5278 190.07 28.5258Z" fill="#C4C5C2"/>
<path d="M190.07 28.5258C190.07 38.5237 181.965 46.6291 171.967 46.6291C161.969 46.6291 153.864 38.5237 153.864 28.5258C153.864 18.5278 161.969 10.4224 171.967 10.4224C181.965 10.4224 190.07 18.5278 190.07 28.5258Z" fill="url(#paint15_linear)"/>
<path d="M226.268 41.4288H122.82V87.9804H226.268V41.4288Z" fill="#C4C5C2"/>
<path d="M138.349 72.4799C138.349 81.0496 131.401 87.9971 122.832 87.9971C114.262 87.9971 107.314 81.0496 107.314 72.4799C107.314 63.9102 114.262 56.9627 122.832 56.9627C131.401 56.9627 138.349 63.9102 138.349 72.4799Z" fill="#C4C5C2"/>
<path d="M226.277 44.0431C226.277 54.0411 218.172 62.1464 208.174 62.1464C198.176 62.1464 190.07 54.0411 190.07 44.0431C190.07 34.0451 198.176 25.9398 208.174 25.9398C218.172 25.9398 226.277 34.0451 226.277 44.0431Z" fill="#C4C5C2"/>
<path d="M226.277 44.0431C226.277 54.0411 218.172 62.1464 208.174 62.1464C198.176 62.1464 190.07 54.0411 190.07 44.0431C190.07 34.0451 198.176 25.9398 208.174 25.9398C218.172 25.9398 226.277 34.0451 226.277 44.0431Z" fill="url(#paint16_linear)"/>
<path d="M153.863 44.0431C153.863 54.0411 145.758 62.1464 135.76 62.1464C125.762 62.1464 117.657 54.0411 117.657 44.0431C117.657 34.0451 125.762 25.9398 135.76 25.9398C145.758 25.9398 153.863 34.0451 153.863 44.0431Z" fill="#C4C5C2"/>
<path d="M153.863 44.0431C153.863 54.0411 145.758 62.1464 135.76 62.1464C125.762 62.1464 117.657 54.0411 117.657 44.0431C117.657 34.0451 125.762 25.9398 135.76 25.9398C145.758 25.9398 153.863 34.0451 153.863 44.0431Z" fill="url(#paint17_linear)"/>
<path d="M166.631 26.0667C148.117 26.0667 133.171 41.1732 133.171 59.6873C133.171 71.9495 140.151 82.1242 149.982 87.9742H183.441C193.272 82.1242 200.251 71.7882 200.251 59.526C200.251 41.0119 185.145 26.0667 166.631 26.0667Z" fill="#C4C5C2"/>
<path d="M166.786 25.9117C148.227 25.9117 133.165 40.9737 133.165 59.5323C133.165 71.824 140.121 82.1165 149.975 87.9805H183.596C193.451 82.1165 200.406 71.824 200.406 59.5323C200.406 40.9737 185.344 25.9117 166.786 25.9117Z" fill="url(#paint18_linear)"/>
<path d="M138.349 72.4799C138.349 81.0496 131.402 87.9971 122.832 87.9971C114.262 87.9971 107.315 81.0496 107.315 72.4799C107.315 63.9102 114.262 56.9627 122.832 56.9627C131.402 56.9627 138.349 63.9102 138.349 72.4799Z" fill="url(#paint19_linear)"/>
<path d="M210.825 67.2258C210.825 78.6524 201.561 87.9161 190.134 87.9161C178.708 87.9161 169.444 78.6524 169.444 67.2258C169.444 55.7991 178.708 46.5355 190.134 46.5355C201.561 46.5355 210.825 55.7991 210.825 67.2258Z" fill="#C4C5C2"/>
<path d="M210.825 67.2258C210.825 78.6524 201.561 87.9161 190.134 87.9161C178.708 87.9161 169.444 78.6524 169.444 67.2258C169.444 55.7991 178.708 46.5355 190.134 46.5355C201.561 46.5355 210.825 55.7991 210.825 67.2258Z" fill="url(#paint20_linear)"/>
<path d="M212.958 54.222C201.632 54.222 193.698 61.1313 190.222 74.1021C186.765 72.3248 182.218 69.7917 178.044 69.7917C163.994 69.7917 153.449 79.82 153.449 93.3029C153.449 96.131 154.831 100.2 155.735 102.727C148.885 106.492 143.131 112.505 143.131 120.171C143.131 132.306 151.129 142.155 165.576 142.155H260.339C274.672 142.155 282.784 132.306 282.784 120.171C282.784 111.935 277.03 106.378 270.18 102.613C271.084 100.086 272.58 96.1311 272.58 93.3034C272.58 79.8205 261.636 69.6779 247.87 69.6779C243.697 69.6779 239.378 72.211 235.921 73.9883C232.559 61.4711 224.283 54.2297 212.955 54.2297L212.958 54.222Z" fill="url(#paint21_linear)"/>
<path d="M231.07 77.5258C231.07 87.5237 222.965 95.6291 212.967 95.6291C202.969 95.6291 194.864 87.5237 194.864 77.5258C194.864 67.5278 202.969 59.4224 212.967 59.4224C222.965 59.4224 231.07 67.5278 231.07 77.5258Z" fill="#C4C5C2"/>
<path d="M231.07 77.5258C231.07 87.5237 222.965 95.6291 212.967 95.6291C202.969 95.6291 194.864 87.5237 194.864 77.5258C194.864 67.5278 202.969 59.4224 212.967 59.4224C222.965 59.4224 231.07 67.5278 231.07 77.5258Z" fill="url(#paint22_linear)"/>
<path d="M267.268 90.4288H163.82V136.98H267.268V90.4288Z" fill="#C4C5C2"/>
<path d="M267.277 93.0431C267.277 103.041 259.172 111.146 249.174 111.146C239.176 111.146 231.07 103.041 231.07 93.0431C231.07 83.0451 239.176 74.9398 249.174 74.9398C259.172 74.9398 267.277 83.0451 267.277 93.0431Z" fill="#C4C5C2"/>
<path d="M267.277 93.0431C267.277 103.041 259.172 111.146 249.174 111.146C239.176 111.146 231.07 103.041 231.07 93.0431C231.07 83.0451 239.176 74.9398 249.174 74.9398C259.172 74.9398 267.277 83.0451 267.277 93.0431Z" fill="url(#paint23_linear)"/>
<path d="M194.863 93.0431C194.863 103.041 186.758 111.146 176.76 111.146C166.762 111.146 158.657 103.041 158.657 93.0431C158.657 83.0451 166.762 74.9398 176.76 74.9398C186.758 74.9398 194.863 83.0451 194.863 93.0431Z" fill="#C4C5C2"/>
<path d="M194.863 93.0431C194.863 103.041 186.758 111.146 176.76 111.146C166.762 111.146 158.657 103.041 158.657 93.0431C158.657 83.0451 166.762 74.9398 176.76 74.9398C186.758 74.9398 194.863 83.0451 194.863 93.0431Z" fill="url(#paint24_linear)"/>
<path d="M207.631 75.0667C189.117 75.0667 174.171 90.1732 174.171 108.687C174.171 120.95 181.151 131.124 190.982 136.974H224.441C234.272 131.124 241.251 120.788 241.251 108.526C241.251 90.0119 226.145 75.0667 207.631 75.0667Z" fill="#C4C5C2"/>
<path d="M207.786 74.9117C189.227 74.9117 174.165 89.9737 174.165 108.532C174.165 120.824 181.121 131.117 190.975 136.98H224.596C234.451 131.117 241.406 120.824 241.406 108.532C241.406 89.9737 226.344 74.9117 207.786 74.9117Z" fill="url(#paint25_linear)"/>
<path d="M251.825 116.226C251.825 127.652 242.561 136.916 231.134 136.916C219.708 136.916 210.444 127.652 210.444 116.226C210.444 104.799 219.708 95.5355 231.134 95.5355C242.561 95.5355 251.825 104.799 251.825 116.226Z" fill="#C4C5C2"/>
<path d="M251.825 116.226C251.825 127.652 242.561 136.916 231.134 136.916C219.708 136.916 210.444 127.652 210.444 116.226C210.444 104.799 219.708 95.5355 231.134 95.5355C242.561 95.5355 251.825 104.799 251.825 116.226Z" fill="url(#paint26_linear)"/>
</g>
<path d="M219.042 71.222C230.368 71.222 238.302 78.1313 241.778 91.1021C245.235 89.3248 249.782 86.7917 253.956 86.7917C268.006 86.7917 278.551 96.82 278.551 110.303C278.551 113.131 277.169 117.2 276.265 119.727C283.115 123.492 288.869 129.505 288.869 137.171C288.869 149.306 280.871 159.155 266.424 159.155H171.661C157.328 159.155 149.216 149.306 149.216 137.171C149.216 128.935 154.97 123.378 161.82 119.613C160.916 117.086 159.42 113.131 159.42 110.303C159.42 96.8205 170.364 86.6779 184.13 86.6779C188.303 86.6779 192.622 89.211 196.079 90.9883C199.441 78.4711 207.717 71.2297 219.045 71.2297L219.042 71.222Z" fill="url(#paint27_linear)"/>
<path d="M200.93 94.5258C200.93 104.524 209.035 112.629 219.033 112.629C229.031 112.629 237.136 104.524 237.136 94.5258C237.136 84.5278 229.031 76.4224 219.033 76.4224C209.035 76.4224 200.93 84.5278 200.93 94.5258Z" fill="#C4C5C2"/>
<path d="M200.93 94.5258C200.93 104.524 209.035 112.629 219.033 112.629C229.031 112.629 237.136 104.524 237.136 94.5258C237.136 84.5278 229.031 76.4224 219.033 76.4224C209.035 76.4224 200.93 84.5278 200.93 94.5258Z" fill="url(#paint28_linear)"/>
<path d="M164.732 107.429H268.18V153.98H164.732V107.429Z" fill="#C4C5C2"/>
<path d="M252.651 138.48C252.651 147.05 259.599 153.997 268.168 153.997C276.738 153.997 283.686 147.05 283.686 138.48C283.686 129.91 276.738 122.963 268.168 122.963C259.599 122.963 252.651 129.91 252.651 138.48Z" fill="#C4C5C2"/>
<path d="M164.723 110.043C164.723 120.041 172.828 128.146 182.826 128.146C192.824 128.146 200.93 120.041 200.93 110.043C200.93 100.045 192.824 91.9398 182.826 91.9398C172.828 91.9398 164.723 100.045 164.723 110.043Z" fill="#C4C5C2"/>
<path d="M164.723 110.043C164.723 120.041 172.828 128.146 182.826 128.146C192.824 128.146 200.93 120.041 200.93 110.043C200.93 100.045 192.824 91.9398 182.826 91.9398C172.828 91.9398 164.723 100.045 164.723 110.043Z" fill="url(#paint29_linear)"/>
<path d="M237.137 110.043C237.137 120.041 245.242 128.146 255.24 128.146C265.238 128.146 273.343 120.041 273.343 110.043C273.343 100.045 265.238 91.9398 255.24 91.9398C245.242 91.9398 237.137 100.045 237.137 110.043Z" fill="#C4C5C2"/>
<path d="M237.137 110.043C237.137 120.041 245.242 128.146 255.24 128.146C265.238 128.146 273.343 120.041 273.343 110.043C273.343 100.045 265.238 91.9398 255.24 91.9398C245.242 91.9398 237.137 100.045 237.137 110.043Z" fill="url(#paint30_linear)"/>
<path d="M224.369 92.0667C242.883 92.0667 257.829 107.173 257.829 125.687C257.829 137.95 250.849 148.124 241.018 153.974H207.559C197.728 148.124 190.749 137.788 190.749 125.526C190.749 107.012 205.855 92.0667 224.369 92.0667Z" fill="#C4C5C2"/>
<path d="M224.214 91.9117C242.773 91.9117 257.835 106.974 257.835 125.532C257.835 137.824 250.879 148.117 241.025 153.98H207.404C197.549 148.117 190.594 137.824 190.594 125.532C190.594 106.974 205.656 91.9117 224.214 91.9117Z" fill="url(#paint31_linear)"/>
<path d="M252.651 138.48C252.651 147.05 259.598 153.997 268.168 153.997C276.738 153.997 283.685 147.05 283.685 138.48C283.685 129.91 276.738 122.963 268.168 122.963C259.598 122.963 252.651 129.91 252.651 138.48Z" fill="url(#paint32_linear)"/>
<path d="M180.175 133.226C180.175 144.652 189.439 153.916 200.866 153.916C212.292 153.916 221.556 144.652 221.556 133.226C221.556 121.799 212.292 112.535 200.866 112.535C189.439 112.535 180.175 121.799 180.175 133.226Z" fill="#C4C5C2"/>
<path d="M180.175 133.226C180.175 144.652 189.439 153.916 200.866 153.916C212.292 153.916 221.556 144.652 221.556 133.226C221.556 121.799 212.292 112.535 200.866 112.535C189.439 112.535 180.175 121.799 180.175 133.226Z" fill="url(#paint33_linear)"/>
<path d="M337.042 120.222C348.368 120.222 356.302 127.131 359.778 140.102C363.235 138.325 367.782 135.792 371.956 135.792C386.006 135.792 396.551 145.82 396.551 159.303C396.551 162.131 395.169 166.2 394.265 168.727C401.115 172.492 406.869 178.505 406.869 186.171C406.869 198.306 398.871 208.155 384.424 208.155H289.661C275.328 208.155 267.216 198.306 267.216 186.171C267.216 177.935 272.97 172.378 279.82 168.613C278.916 166.086 277.42 162.131 277.42 159.303C277.42 145.82 288.364 135.678 302.13 135.678C306.303 135.678 310.622 138.211 314.079 139.988C317.441 127.471 325.717 120.23 337.045 120.23L337.042 120.222Z" fill="url(#paint34_linear)"/>
<path d="M318.93 143.526C318.93 153.524 327.035 161.629 337.033 161.629C347.031 161.629 355.136 153.524 355.136 143.526C355.136 133.528 347.031 125.422 337.033 125.422C327.035 125.422 318.93 133.528 318.93 143.526Z" fill="#C4C5C2"/>
<path d="M318.93 143.526C318.93 153.524 327.035 161.629 337.033 161.629C347.031 161.629 355.136 153.524 355.136 143.526C355.136 133.528 347.031 125.422 337.033 125.422C327.035 125.422 318.93 133.528 318.93 143.526Z" fill="url(#paint35_linear)"/>
<path d="M282.732 156.429H386.18V202.98H282.732V156.429Z" fill="#C4C5C2"/>
<path d="M370.651 187.48C370.651 196.05 377.599 202.997 386.168 202.997C394.738 202.997 401.686 196.05 401.686 187.48C401.686 178.91 394.738 171.963 386.168 171.963C377.599 171.963 370.651 178.91 370.651 187.48Z" fill="#C4C5C2"/>
<path d="M282.723 159.043C282.723 169.041 290.828 177.146 300.826 177.146C310.824 177.146 318.93 169.041 318.93 159.043C318.93 149.045 310.824 140.94 300.826 140.94C290.828 140.94 282.723 149.045 282.723 159.043Z" fill="#C4C5C2"/>
<path d="M282.723 159.043C282.723 169.041 290.828 177.146 300.826 177.146C310.824 177.146 318.93 169.041 318.93 159.043C318.93 149.045 310.824 140.94 300.826 140.94C290.828 140.94 282.723 149.045 282.723 159.043Z" fill="url(#paint36_linear)"/>
<path d="M355.137 159.043C355.137 169.041 363.242 177.146 373.24 177.146C383.238 177.146 391.343 169.041 391.343 159.043C391.343 149.045 383.238 140.94 373.24 140.94C363.242 140.94 355.137 149.045 355.137 159.043Z" fill="#C4C5C2"/>
<path d="M355.137 159.043C355.137 169.041 363.242 177.146 373.24 177.146C383.238 177.146 391.343 169.041 391.343 159.043C391.343 149.045 383.238 140.94 373.24 140.94C363.242 140.94 355.137 149.045 355.137 159.043Z" fill="url(#paint37_linear)"/>
<path d="M342.369 141.067C360.883 141.067 375.829 156.173 375.829 174.687C375.829 186.95 368.849 197.124 359.018 202.974H325.559C315.728 197.124 308.749 186.788 308.749 174.526C308.749 156.012 323.855 141.067 342.369 141.067Z" fill="#C4C5C2"/>
<path d="M342.214 140.912C360.773 140.912 375.835 155.974 375.835 174.532C375.835 186.824 368.879 197.117 359.025 202.98H325.404C315.549 197.117 308.594 186.824 308.594 174.532C308.594 155.974 323.656 140.912 342.214 140.912Z" fill="url(#paint38_linear)"/>
<path d="M370.651 187.48C370.651 196.05 377.598 202.997 386.168 202.997C394.738 202.997 401.685 196.05 401.685 187.48C401.685 178.91 394.738 171.963 386.168 171.963C377.598 171.963 370.651 178.91 370.651 187.48Z" fill="url(#paint39_linear)"/>
<path d="M298.175 182.226C298.175 193.652 307.439 202.916 318.866 202.916C330.292 202.916 339.556 193.652 339.556 182.226C339.556 170.799 330.292 161.535 318.866 161.535C307.439 161.535 298.175 170.799 298.175 182.226Z" fill="#C4C5C2"/>
<path d="M298.175 182.226C298.175 193.652 307.439 202.916 318.866 202.916C330.292 202.916 339.556 193.652 339.556 182.226C339.556 170.799 330.292 161.535 318.866 161.535C307.439 161.535 298.175 170.799 298.175 182.226Z" fill="url(#paint40_linear)"/>
<path d="M378.042 120.222C389.368 120.222 397.302 127.131 400.778 140.102C404.235 138.325 408.782 135.792 412.956 135.792C427.006 135.792 437.551 145.82 437.551 159.303C437.551 162.131 436.169 166.2 435.265 168.727C442.115 172.492 447.869 178.505 447.869 186.171C447.869 198.306 439.871 208.155 425.424 208.155H330.661C316.328 208.155 308.216 198.306 308.216 186.171C308.216 177.935 313.97 172.378 320.82 168.613C319.916 166.086 318.42 162.131 318.42 159.303C318.42 145.82 329.364 135.678 343.13 135.678C347.303 135.678 351.622 138.211 355.079 139.988C358.441 127.471 366.717 120.23 378.045 120.23L378.042 120.222Z" fill="url(#paint41_linear)"/>
<path d="M359.93 143.526C359.93 153.524 368.035 161.629 378.033 161.629C388.031 161.629 396.136 153.524 396.136 143.526C396.136 133.528 388.031 125.422 378.033 125.422C368.035 125.422 359.93 133.528 359.93 143.526Z" fill="#C4C5C2"/>
<path d="M359.93 143.526C359.93 153.524 368.035 161.629 378.033 161.629C388.031 161.629 396.136 153.524 396.136 143.526C396.136 133.528 388.031 125.422 378.033 125.422C368.035 125.422 359.93 133.528 359.93 143.526Z" fill="url(#paint42_linear)"/>
<path d="M323.732 156.429H427.18V202.98H323.732V156.429Z" fill="#C4C5C2"/>
<path d="M411.651 187.48C411.651 196.05 418.599 202.997 427.168 202.997C435.738 202.997 442.686 196.05 442.686 187.48C442.686 178.91 435.738 171.963 427.168 171.963C418.599 171.963 411.651 178.91 411.651 187.48Z" fill="#C4C5C2"/>
<path d="M323.723 159.043C323.723 169.041 331.828 177.146 341.826 177.146C351.824 177.146 359.93 169.041 359.93 159.043C359.93 149.045 351.824 140.94 341.826 140.94C331.828 140.94 323.723 149.045 323.723 159.043Z" fill="#C4C5C2"/>
<path d="M323.723 159.043C323.723 169.041 331.828 177.146 341.826 177.146C351.824 177.146 359.93 169.041 359.93 159.043C359.93 149.045 351.824 140.94 341.826 140.94C331.828 140.94 323.723 149.045 323.723 159.043Z" fill="url(#paint43_linear)"/>
<path d="M396.137 159.043C396.137 169.041 404.242 177.146 414.24 177.146C424.238 177.146 432.343 169.041 432.343 159.043C432.343 149.045 424.238 140.94 414.24 140.94C404.242 140.94 396.137 149.045 396.137 159.043Z" fill="#C4C5C2"/>
<path d="M396.137 159.043C396.137 169.041 404.242 177.146 414.24 177.146C424.238 177.146 432.343 169.041 432.343 159.043C432.343 149.045 424.238 140.94 414.24 140.94C404.242 140.94 396.137 149.045 396.137 159.043Z" fill="url(#paint44_linear)"/>
<path d="M383.369 141.067C401.883 141.067 416.829 156.173 416.829 174.687C416.829 186.95 409.849 197.124 400.018 202.974H366.559C356.728 197.124 349.749 186.788 349.749 174.526C349.749 156.012 364.855 141.067 383.369 141.067Z" fill="#C4C5C2"/>
<path d="M383.214 140.912C401.773 140.912 416.835 155.974 416.835 174.532C416.835 186.824 409.879 197.117 400.025 202.98H366.404C356.549 197.117 349.594 186.824 349.594 174.532C349.594 155.974 364.656 140.912 383.214 140.912Z" fill="url(#paint45_linear)"/>
<path d="M411.651 187.48C411.651 196.05 418.598 202.997 427.168 202.997C435.738 202.997 442.685 196.05 442.685 187.48C442.685 178.91 435.738 171.963 427.168 171.963C418.598 171.963 411.651 178.91 411.651 187.48Z" fill="url(#paint46_linear)"/>
<path d="M339.175 182.226C339.175 193.652 348.439 202.916 359.866 202.916C371.292 202.916 380.556 193.652 380.556 182.226C380.556 170.799 371.292 161.535 359.866 161.535C348.439 161.535 339.175 170.799 339.175 182.226Z" fill="#C4C5C2"/>
<path d="M339.175 182.226C339.175 193.652 348.439 202.916 359.866 202.916C371.292 202.916 380.556 193.652 380.556 182.226C380.556 170.799 371.292 161.535 359.866 161.535C348.439 161.535 339.175 170.799 339.175 182.226Z" fill="url(#paint47_linear)"/>
<path d="M111.958 54.222C100.632 54.222 92.6982 61.1313 89.2224 74.1021C85.7648 72.3248 81.2176 69.7917 77.0445 69.7917C62.9937 69.7917 52.4492 79.82 52.4492 93.3029C52.4492 96.131 53.8313 100.2 54.7352 102.727C47.8849 106.492 42.1311 112.505 42.1311 120.171C42.1311 132.306 50.1286 142.155 64.5757 142.155H159.339C173.672 142.155 181.784 132.306 181.784 120.171C181.784 111.935 176.03 106.378 169.18 102.613C170.084 100.086 171.58 96.1311 171.58 93.3034C171.58 79.8205 160.636 69.6779 146.87 69.6779C142.697 69.6779 138.378 72.211 134.921 73.9883C131.559 61.4711 123.283 54.2297 111.955 54.2297L111.958 54.222Z" fill="url(#paint48_linear)"/>
<path d="M130.07 77.5258C130.07 87.5237 121.965 95.6291 111.967 95.6291C101.969 95.6291 93.8635 87.5237 93.8635 77.5258C93.8635 67.5278 101.969 59.4224 111.967 59.4224C121.965 59.4224 130.07 67.5278 130.07 77.5258Z" fill="#C4C5C2"/>
<path d="M130.07 77.5258C130.07 87.5237 121.965 95.6291 111.967 95.6291C101.969 95.6291 93.8635 87.5237 93.8635 77.5258C93.8635 67.5278 101.969 59.4224 111.967 59.4224C121.965 59.4224 130.07 67.5278 130.07 77.5258Z" fill="url(#paint49_linear)"/>
<path d="M166.268 90.4288H62.8204V136.98H166.268V90.4288Z" fill="#C4C5C2"/>
<path d="M78.3488 121.48C78.3488 130.05 71.4014 136.997 62.8316 136.997C54.2619 136.997 47.3145 130.05 47.3145 121.48C47.3145 112.91 54.2619 105.963 62.8316 105.963C71.4014 105.963 78.3488 112.91 78.3488 121.48Z" fill="#C4C5C2"/>
<path d="M166.277 93.0431C166.277 103.041 158.172 111.146 148.174 111.146C138.176 111.146 130.07 103.041 130.07 93.0431C130.07 83.0451 138.176 74.9398 148.174 74.9398C158.172 74.9398 166.277 83.0451 166.277 93.0431Z" fill="#C4C5C2"/>
<path d="M166.277 93.0431C166.277 103.041 158.172 111.146 148.174 111.146C138.176 111.146 130.07 103.041 130.07 93.0431C130.07 83.0451 138.176 74.9398 148.174 74.9398C158.172 74.9398 166.277 83.0451 166.277 93.0431Z" fill="url(#paint50_linear)"/>
<path d="M93.8634 93.0431C93.8634 103.041 85.758 111.146 75.7601 111.146C65.7621 111.146 57.6567 103.041 57.6567 93.0431C57.6567 83.0451 65.7621 74.9398 75.7601 74.9398C85.758 74.9398 93.8634 83.0451 93.8634 93.0431Z" fill="#C4C5C2"/>
<path d="M93.8634 93.0431C93.8634 103.041 85.758 111.146 75.7601 111.146C65.7621 111.146 57.6567 103.041 57.6567 93.0431C57.6567 83.0451 65.7621 74.9398 75.7601 74.9398C85.758 74.9398 93.8634 83.0451 93.8634 93.0431Z" fill="url(#paint51_linear)"/>
<path d="M106.631 75.0667C88.1166 75.0667 73.1714 90.1732 73.1714 108.687C73.1714 120.95 80.151 131.124 89.9817 136.974H123.441C133.272 131.124 140.251 120.788 140.251 108.526C140.251 90.0119 125.145 75.0667 106.631 75.0667Z" fill="#C4C5C2"/>
<path d="M106.786 74.9117C88.2272 74.9117 73.1652 89.9737 73.1652 108.532C73.1652 120.824 80.121 131.117 89.9755 136.98H123.596C133.451 131.117 140.406 120.824 140.406 108.532C140.406 89.9737 125.344 74.9117 106.786 74.9117Z" fill="url(#paint52_linear)"/>
<path d="M78.3493 121.48C78.3493 130.05 71.4018 136.997 62.8321 136.997C54.2624 136.997 47.3149 130.05 47.3149 121.48C47.3149 112.91 54.2624 105.963 62.8321 105.963C71.4018 105.963 78.3493 112.91 78.3493 121.48Z" fill="url(#paint53_linear)"/>
<path d="M150.825 116.226C150.825 127.652 141.561 136.916 130.134 136.916C118.708 136.916 109.444 127.652 109.444 116.226C109.444 104.799 118.708 95.5355 130.134 95.5355C141.561 95.5355 150.825 104.799 150.825 116.226Z" fill="#C4C5C2"/>
<path d="M150.825 116.226C150.825 127.652 141.561 136.916 130.134 136.916C118.708 136.916 109.444 127.652 109.444 116.226C109.444 104.799 118.708 95.5355 130.134 95.5355C141.561 95.5355 150.825 104.799 150.825 116.226Z" fill="url(#paint54_linear)"/>
<path d="M74.9582 120.222C63.6322 120.222 55.6982 127.131 52.2224 140.102C48.7648 138.325 44.2176 135.792 40.0445 135.792C25.9937 135.792 15.4492 145.82 15.4492 159.303C15.4492 162.131 16.8313 166.2 17.7352 168.727C10.8849 172.492 5.1311 178.505 5.1311 186.171C5.1311 198.306 13.1286 208.155 27.5757 208.155H122.339C136.672 208.155 144.784 198.306 144.784 186.171C144.784 177.935 139.03 172.378 132.18 168.613C133.084 166.086 134.58 162.131 134.58 159.303C134.58 145.82 123.636 135.678 109.87 135.678C105.697 135.678 101.378 138.211 97.9206 139.988C94.5586 127.471 86.2827 120.23 74.9552 120.23L74.9582 120.222Z" fill="url(#paint55_linear)"/>
<path d="M93.0702 143.526C93.0702 153.524 84.9648 161.629 74.9669 161.629C64.9689 161.629 56.8635 153.524 56.8635 143.526C56.8635 133.528 64.9689 125.422 74.9669 125.422C84.9648 125.422 93.0702 133.528 93.0702 143.526Z" fill="#C4C5C2"/>
<path d="M93.0702 143.526C93.0702 153.524 84.9648 161.629 74.9669 161.629C64.9689 161.629 56.8635 153.524 56.8635 143.526C56.8635 133.528 64.9689 125.422 74.9669 125.422C84.9648 125.422 93.0702 133.528 93.0702 143.526Z" fill="url(#paint56_linear)"/>
<path d="M129.268 156.429H25.8204V202.98H129.268V156.429Z" fill="#C4C5C2"/>
<path d="M41.3488 187.48C41.3488 196.05 34.4014 202.997 25.8316 202.997C17.2619 202.997 10.3145 196.05 10.3145 187.48C10.3145 178.91 17.2619 171.963 25.8316 171.963C34.4014 171.963 41.3488 178.91 41.3488 187.48Z" fill="#C4C5C2"/>
<path d="M129.277 159.043C129.277 169.041 121.172 177.146 111.174 177.146C101.176 177.146 93.0703 169.041 93.0703 159.043C93.0703 149.045 101.176 140.94 111.174 140.94C121.172 140.94 129.277 149.045 129.277 159.043Z" fill="#C4C5C2"/>
<path d="M129.277 159.043C129.277 169.041 121.172 177.146 111.174 177.146C101.176 177.146 93.0703 169.041 93.0703 159.043C93.0703 149.045 101.176 140.94 111.174 140.94C121.172 140.94 129.277 149.045 129.277 159.043Z" fill="url(#paint57_linear)"/>
<path d="M56.8634 159.043C56.8634 169.041 48.758 177.146 38.7601 177.146C28.7621 177.146 20.6567 169.041 20.6567 159.043C20.6567 149.045 28.7621 140.94 38.7601 140.94C48.758 140.94 56.8634 149.045 56.8634 159.043Z" fill="#C4C5C2"/>
<path d="M56.8634 159.043C56.8634 169.041 48.758 177.146 38.7601 177.146C28.7621 177.146 20.6567 169.041 20.6567 159.043C20.6567 149.045 28.7621 140.94 38.7601 140.94C48.758 140.94 56.8634 149.045 56.8634 159.043Z" fill="url(#paint58_linear)"/>
<path d="M69.6307 141.067C51.1166 141.067 36.1714 156.173 36.1714 174.687C36.1714 186.95 43.151 197.124 52.9817 202.974H86.441C96.2716 197.124 103.251 186.788 103.251 174.526C103.251 156.012 88.1448 141.067 69.6307 141.067Z" fill="#C4C5C2"/>
<path d="M69.7858 140.912C51.2272 140.912 36.1652 155.974 36.1652 174.532C36.1652 186.824 43.121 197.117 52.9755 202.98H86.5961C96.4505 197.117 103.406 186.824 103.406 174.532C103.406 155.974 88.3443 140.912 69.7858 140.912Z" fill="url(#paint59_linear)"/>
<path d="M41.3493 187.48C41.3493 196.05 34.4018 202.997 25.8321 202.997C17.2624 202.997 10.3149 196.05 10.3149 187.48C10.3149 178.91 17.2624 171.963 25.8321 171.963C34.4018 171.963 41.3493 178.91 41.3493 187.48Z" fill="url(#paint60_linear)"/>
<path d="M113.825 182.226C113.825 193.652 104.561 202.916 93.1343 202.916C81.7076 202.916 72.444 193.652 72.444 182.226C72.444 170.799 81.7076 161.535 93.1343 161.535C104.561 161.535 113.825 170.799 113.825 182.226Z" fill="#C4C5C2"/>
<path d="M113.825 182.226C113.825 193.652 104.561 202.916 93.1343 202.916C81.7076 202.916 72.444 193.652 72.444 182.226C72.444 170.799 81.7076 161.535 93.1343 161.535C104.561 161.535 113.825 170.799 113.825 182.226Z" fill="url(#paint61_linear)"/>
<path d="M162.958 120.222C151.632 120.222 143.698 127.131 140.222 140.102C136.765 138.325 132.218 135.792 128.044 135.792C113.994 135.792 103.449 145.82 103.449 159.303C103.449 162.131 104.831 166.2 105.735 168.727C98.8849 172.492 93.1311 178.505 93.1311 186.171C93.1311 198.306 101.129 208.155 115.576 208.155H210.339C224.672 208.155 232.784 198.306 232.784 186.171C232.784 177.935 227.03 172.378 220.18 168.613C221.084 166.086 222.58 162.131 222.58 159.303C222.58 145.82 211.636 135.678 197.87 135.678C193.697 135.678 189.378 138.211 185.921 139.988C182.559 127.471 174.283 120.23 162.955 120.23L162.958 120.222Z" fill="url(#paint62_linear)"/>
<path d="M181.07 143.526C181.07 153.524 172.965 161.629 162.967 161.629C152.969 161.629 144.864 153.524 144.864 143.526C144.864 133.528 152.969 125.422 162.967 125.422C172.965 125.422 181.07 133.528 181.07 143.526Z" fill="#C4C5C2"/>
<path d="M181.07 143.526C181.07 153.524 172.965 161.629 162.967 161.629C152.969 161.629 144.864 153.524 144.864 143.526C144.864 133.528 152.969 125.422 162.967 125.422C172.965 125.422 181.07 133.528 181.07 143.526Z" fill="url(#paint63_linear)"/>
<path d="M217.268 156.429H113.82V202.98H217.268V156.429Z" fill="#C4C5C2"/>
<path d="M129.349 187.48C129.349 196.05 122.401 202.997 113.832 202.997C105.262 202.997 98.3145 196.05 98.3145 187.48C98.3145 178.91 105.262 171.963 113.832 171.963C122.401 171.963 129.349 178.91 129.349 187.48Z" fill="#C4C5C2"/>
<path d="M217.277 159.043C217.277 169.041 209.172 177.146 199.174 177.146C189.176 177.146 181.07 169.041 181.07 159.043C181.07 149.045 189.176 140.94 199.174 140.94C209.172 140.94 217.277 149.045 217.277 159.043Z" fill="#C4C5C2"/>
<path d="M217.277 159.043C217.277 169.041 209.172 177.146 199.174 177.146C189.176 177.146 181.07 169.041 181.07 159.043C181.07 149.045 189.176 140.94 199.174 140.94C209.172 140.94 217.277 149.045 217.277 159.043Z" fill="url(#paint64_linear)"/>
<path d="M144.863 159.043C144.863 169.041 136.758 177.146 126.76 177.146C116.762 177.146 108.657 169.041 108.657 159.043C108.657 149.045 116.762 140.94 126.76 140.94C136.758 140.94 144.863 149.045 144.863 159.043Z" fill="#C4C5C2"/>
<path d="M144.863 159.043C144.863 169.041 136.758 177.146 126.76 177.146C116.762 177.146 108.657 169.041 108.657 159.043C108.657 149.045 116.762 140.94 126.76 140.94C136.758 140.94 144.863 149.045 144.863 159.043Z" fill="url(#paint65_linear)"/>
<path d="M157.631 141.067C139.117 141.067 124.171 156.173 124.171 174.687C124.171 186.95 131.151 197.124 140.982 202.974H174.441C184.272 197.124 191.251 186.788 191.251 174.526C191.251 156.012 176.145 141.067 157.631 141.067Z" fill="#C4C5C2"/>
<path d="M157.786 140.912C139.227 140.912 124.165 155.974 124.165 174.532C124.165 186.824 131.121 197.117 140.975 202.98H174.596C184.451 197.117 191.406 186.824 191.406 174.532C191.406 155.974 176.344 140.912 157.786 140.912Z" fill="url(#paint66_linear)"/>
<path d="M129.349 187.48C129.349 196.05 122.402 202.997 113.832 202.997C105.262 202.997 98.3149 196.05 98.3149 187.48C98.3149 178.91 105.262 171.963 113.832 171.963C122.402 171.963 129.349 178.91 129.349 187.48Z" fill="url(#paint67_linear)"/>
<path d="M201.825 182.226C201.825 193.652 192.561 202.916 181.134 202.916C169.708 202.916 160.444 193.652 160.444 182.226C160.444 170.799 169.708 161.535 181.134 161.535C192.561 161.535 201.825 170.799 201.825 182.226Z" fill="#C4C5C2"/>
<path d="M201.825 182.226C201.825 193.652 192.561 202.916 181.134 202.916C169.708 202.916 160.444 193.652 160.444 182.226C160.444 170.799 169.708 161.535 181.134 161.535C192.561 161.535 201.825 170.799 201.825 182.226Z" fill="url(#paint68_linear)"/>
<path d="M237.958 120.222C226.632 120.222 218.698 127.131 215.222 140.102C211.765 138.325 207.218 135.792 203.044 135.792C188.994 135.792 178.449 145.82 178.449 159.303C178.449 162.131 179.831 166.2 180.735 168.727C173.885 172.492 168.131 178.505 168.131 186.171C168.131 198.306 176.129 208.155 190.576 208.155H285.339C299.672 208.155 307.784 198.306 307.784 186.171C307.784 177.935 302.03 172.378 295.18 168.613C296.084 166.086 297.58 162.131 297.58 159.303C297.58 145.82 286.636 135.678 272.87 135.678C268.697 135.678 264.378 138.211 260.921 139.988C257.559 127.471 249.283 120.23 237.955 120.23L237.958 120.222Z" fill="url(#paint69_linear)"/>
<path d="M256.07 143.526C256.07 153.524 247.965 161.629 237.967 161.629C227.969 161.629 219.864 153.524 219.864 143.526C219.864 133.528 227.969 125.422 237.967 125.422C247.965 125.422 256.07 133.528 256.07 143.526Z" fill="#C4C5C2"/>
<path d="M256.07 143.526C256.07 153.524 247.965 161.629 237.967 161.629C227.969 161.629 219.864 153.524 219.864 143.526C219.864 133.528 227.969 125.422 237.967 125.422C247.965 125.422 256.07 133.528 256.07 143.526Z" fill="url(#paint70_linear)"/>
<path d="M292.268 156.429H188.82V202.98H292.268V156.429Z" fill="#C4C5C2"/>
<path d="M204.349 187.48C204.349 196.05 197.401 202.997 188.832 202.997C180.262 202.997 173.314 196.05 173.314 187.48C173.314 178.91 180.262 171.963 188.832 171.963C197.401 171.963 204.349 178.91 204.349 187.48Z" fill="#C4C5C2"/>
<path d="M292.277 159.043C292.277 169.041 284.172 177.146 274.174 177.146C264.176 177.146 256.07 169.041 256.07 159.043C256.07 149.045 264.176 140.94 274.174 140.94C284.172 140.94 292.277 149.045 292.277 159.043Z" fill="#C4C5C2"/>
<path d="M292.277 159.043C292.277 169.041 284.172 177.146 274.174 177.146C264.176 177.146 256.07 169.041 256.07 159.043C256.07 149.045 264.176 140.94 274.174 140.94C284.172 140.94 292.277 149.045 292.277 159.043Z" fill="url(#paint71_linear)"/>
<path d="M219.863 159.043C219.863 169.041 211.758 177.146 201.76 177.146C191.762 177.146 183.657 169.041 183.657 159.043C183.657 149.045 191.762 140.94 201.76 140.94C211.758 140.94 219.863 149.045 219.863 159.043Z" fill="#C4C5C2"/>
<path d="M219.863 159.043C219.863 169.041 211.758 177.146 201.76 177.146C191.762 177.146 183.657 169.041 183.657 159.043C183.657 149.045 191.762 140.94 201.76 140.94C211.758 140.94 219.863 149.045 219.863 159.043Z" fill="url(#paint72_linear)"/>
<path d="M232.631 141.067C214.117 141.067 199.171 156.173 199.171 174.687C199.171 186.95 206.151 197.124 215.982 202.974H249.441C259.272 197.124 266.251 186.788 266.251 174.526C266.251 156.012 251.145 141.067 232.631 141.067Z" fill="#C4C5C2"/>
<path d="M232.786 140.912C214.227 140.912 199.165 155.974 199.165 174.532C199.165 186.824 206.121 197.117 215.975 202.98H249.596C259.451 197.117 266.406 186.824 266.406 174.532C266.406 155.974 251.344 140.912 232.786 140.912Z" fill="url(#paint73_linear)"/>
<path d="M204.349 187.48C204.349 196.05 197.402 202.997 188.832 202.997C180.262 202.997 173.315 196.05 173.315 187.48C173.315 178.91 180.262 171.963 188.832 171.963C197.402 171.963 204.349 178.91 204.349 187.48Z" fill="url(#paint74_linear)"/>
<path d="M276.825 182.226C276.825 193.652 267.561 202.916 256.134 202.916C244.708 202.916 235.444 193.652 235.444 182.226C235.444 170.799 244.708 161.535 256.134 161.535C267.561 161.535 276.825 170.799 276.825 182.226Z" fill="#C4C5C2"/>
<path d="M276.825 182.226C276.825 193.652 267.561 202.916 256.134 202.916C244.708 202.916 235.444 193.652 235.444 182.226C235.444 170.799 244.708 161.535 256.134 161.535C267.561 161.535 276.825 170.799 276.825 182.226Z" fill="url(#paint75_linear)"/>
<defs>
<linearGradient id="paint0_linear" x1="362.076" y1="74.6529" x2="289.611" y2="121.618" gradientUnits="userSpaceOnUse">
<stop stop-color="white"/>
<stop offset="1" stop-color="white" stop-opacity="0"/>
</linearGradient>
<linearGradient id="paint1_linear" x1="317.72" y1="65.721" x2="305.915" y2="84.4665" gradientUnits="userSpaceOnUse">
<stop stop-color="white"/>
<stop offset="1" stop-color="white" stop-opacity="0"/>
</linearGradient>
<linearGradient id="paint2_linear" x1="287.033" y1="72.822" x2="268.779" y2="100.968" gradientUnits="userSpaceOnUse">
<stop stop-color="white"/>
<stop offset="1" stop-color="white" stop-opacity="0"/>
</linearGradient>
<linearGradient id="paint3_linear" x1="362.561" y1="80.2" x2="343.706" y2="99.328" gradientUnits="userSpaceOnUse">
<stop stop-color="white"/>
<stop offset="1" stop-color="white" stop-opacity="0"/>
</linearGradient>
<linearGradient id="paint4_linear" x1="341.8" y1="95.0323" x2="320.904" y2="121.877" gradientUnits="userSpaceOnUse">
<stop stop-color="white"/>
<stop offset="1" stop-color="white" stop-opacity="0"/>
</linearGradient>
<linearGradient id="paint5_linear" x1="370.167" y1="112.626" x2="355.645" y2="125.602" gradientUnits="userSpaceOnUse">
<stop stop-color="white"/>
<stop offset="1" stop-color="white" stop-opacity="0"/>
</linearGradient>
<linearGradient id="paint6_linear" x1="317.211" y1="93.4899" x2="291.602" y2="120.973" gradientUnits="userSpaceOnUse">
<stop stop-color="white"/>
<stop offset="1" stop-color="white" stop-opacity="0"/>
</linearGradient>
<linearGradient id="paint7_linear" x1="320.076" y1="25.6529" x2="247.611" y2="72.6184" gradientUnits="userSpaceOnUse">
<stop stop-color="white"/>
<stop offset="1" stop-color="white" stop-opacity="0"/>
</linearGradient>
<linearGradient id="paint8_linear" x1="275.72" y1="16.721" x2="263.915" y2="35.4665" gradientUnits="userSpaceOnUse">
<stop stop-color="white"/>
<stop offset="1" stop-color="white" stop-opacity="0"/>
</linearGradient>
<linearGradient id="paint9_linear" x1="245.033" y1="23.822" x2="226.779" y2="51.9676" gradientUnits="userSpaceOnUse">
<stop stop-color="white"/>
<stop offset="1" stop-color="white" stop-opacity="0"/>
</linearGradient>
<linearGradient id="paint10_linear" x1="320.561" y1="31.2" x2="301.706" y2="50.328" gradientUnits="userSpaceOnUse">
<stop stop-color="white"/>
<stop offset="1" stop-color="white" stop-opacity="0"/>
</linearGradient>
<linearGradient id="paint11_linear" x1="299.8" y1="46.0323" x2="278.904" y2="72.8771" gradientUnits="userSpaceOnUse">
<stop stop-color="white"/>
<stop offset="1" stop-color="white" stop-opacity="0"/>
</linearGradient>
<linearGradient id="paint12_linear" x1="328.167" y1="63.6263" x2="313.645" y2="76.6022" gradientUnits="userSpaceOnUse">
<stop stop-color="white"/>
<stop offset="1" stop-color="white" stop-opacity="0"/>
</linearGradient>
<linearGradient id="paint13_linear" x1="275.211" y1="44.4899" x2="249.602" y2="71.9728" gradientUnits="userSpaceOnUse">
<stop stop-color="white"/>
<stop offset="1" stop-color="white" stop-opacity="0"/>
</linearGradient>
<linearGradient id="paint14_linear" x1="122.924" y1="25.6529" x2="195.389" y2="72.6184" gradientUnits="userSpaceOnUse">
<stop stop-color="white"/>
<stop offset="1" stop-color="white" stop-opacity="0"/>
</linearGradient>
<linearGradient id="paint15_linear" x1="167.28" y1="16.721" x2="179.085" y2="35.4665" gradientUnits="userSpaceOnUse">
<stop stop-color="white"/>
<stop offset="1" stop-color="white" stop-opacity="0"/>
</linearGradient>
<linearGradient id="paint16_linear" x1="197.967" y1="23.822" x2="216.221" y2="51.9676" gradientUnits="userSpaceOnUse">
<stop stop-color="white"/>
<stop offset="1" stop-color="white" stop-opacity="0"/>
</linearGradient>
<linearGradient id="paint17_linear" x1="122.439" y1="31.2" x2="141.294" y2="50.328" gradientUnits="userSpaceOnUse">
<stop stop-color="white"/>
<stop offset="1" stop-color="white" stop-opacity="0"/>
</linearGradient>
<linearGradient id="paint18_linear" x1="143.2" y1="46.0323" x2="164.096" y2="72.8771" gradientUnits="userSpaceOnUse">
<stop stop-color="white"/>
<stop offset="1" stop-color="white" stop-opacity="0"/>
</linearGradient>
<linearGradient id="paint19_linear" x1="114.833" y1="63.6263" x2="129.355" y2="76.6022" gradientUnits="userSpaceOnUse">
<stop stop-color="white"/>
<stop offset="1" stop-color="white" stop-opacity="0"/>
</linearGradient>
<linearGradient id="paint20_linear" x1="167.789" y1="44.4899" x2="193.398" y2="71.9728" gradientUnits="userSpaceOnUse">
<stop stop-color="white"/>
<stop offset="1" stop-color="white" stop-opacity="0"/>
</linearGradient>
<linearGradient id="paint21_linear" x1="163.924" y1="74.6529" x2="236.389" y2="121.618" gradientUnits="userSpaceOnUse">
<stop stop-color="white"/>
<stop offset="1" stop-color="white" stop-opacity="0"/>
</linearGradient>
<linearGradient id="paint22_linear" x1="208.28" y1="65.721" x2="220.085" y2="84.4665" gradientUnits="userSpaceOnUse">
<stop stop-color="white"/>
<stop offset="1" stop-color="white" stop-opacity="0"/>
</linearGradient>
<linearGradient id="paint23_linear" x1="238.967" y1="72.822" x2="257.221" y2="100.968" gradientUnits="userSpaceOnUse">
<stop stop-color="white"/>
<stop offset="1" stop-color="white" stop-opacity="0"/>
</linearGradient>
<linearGradient id="paint24_linear" x1="163.439" y1="80.2" x2="182.294" y2="99.328" gradientUnits="userSpaceOnUse">
<stop stop-color="white"/>
<stop offset="1" stop-color="white" stop-opacity="0"/>
</linearGradient>
<linearGradient id="paint25_linear" x1="184.2" y1="95.0323" x2="205.096" y2="121.877" gradientUnits="userSpaceOnUse">
<stop stop-color="white"/>
<stop offset="1" stop-color="white" stop-opacity="0"/>
</linearGradient>
<linearGradient id="paint26_linear" x1="208.789" y1="93.4899" x2="234.398" y2="120.973" gradientUnits="userSpaceOnUse">
<stop stop-color="white"/>
<stop offset="1" stop-color="white" stop-opacity="0"/>
</linearGradient>
<linearGradient id="paint27_linear" x1="268.076" y1="91.6529" x2="195.611" y2="138.618" gradientUnits="userSpaceOnUse">
<stop stop-color="white"/>
<stop offset="1" stop-color="white" stop-opacity="0"/>
</linearGradient>
<linearGradient id="paint28_linear" x1="223.72" y1="82.721" x2="211.915" y2="101.467" gradientUnits="userSpaceOnUse">
<stop stop-color="white"/>
<stop offset="1" stop-color="white" stop-opacity="0"/>
</linearGradient>
<linearGradient id="paint29_linear" x1="193.033" y1="89.822" x2="174.779" y2="117.968" gradientUnits="userSpaceOnUse">
<stop stop-color="white"/>
<stop offset="1" stop-color="white" stop-opacity="0"/>
</linearGradient>
<linearGradient id="paint30_linear" x1="268.561" y1="97.2" x2="249.706" y2="116.328" gradientUnits="userSpaceOnUse">
<stop stop-color="white"/>
<stop offset="1" stop-color="white" stop-opacity="0"/>
</linearGradient>
<linearGradient id="paint31_linear" x1="247.8" y1="112.032" x2="226.904" y2="138.877" gradientUnits="userSpaceOnUse">
<stop stop-color="white"/>
<stop offset="1" stop-color="white" stop-opacity="0"/>
</linearGradient>
<linearGradient id="paint32_linear" x1="276.167" y1="129.626" x2="261.645" y2="142.602" gradientUnits="userSpaceOnUse">
<stop stop-color="white"/>
<stop offset="1" stop-color="white" stop-opacity="0"/>
</linearGradient>
<linearGradient id="paint33_linear" x1="223.211" y1="110.49" x2="197.602" y2="137.973" gradientUnits="userSpaceOnUse">
<stop stop-color="white"/>
<stop offset="1" stop-color="white" stop-opacity="0"/>
</linearGradient>
<linearGradient id="paint34_linear" x1="386.076" y1="140.653" x2="313.611" y2="187.618" gradientUnits="userSpaceOnUse">
<stop stop-color="white"/>
<stop offset="1" stop-color="white" stop-opacity="0"/>
</linearGradient>
<linearGradient id="paint35_linear" x1="341.72" y1="131.721" x2="329.915" y2="150.467" gradientUnits="userSpaceOnUse">
<stop stop-color="white"/>
<stop offset="1" stop-color="white" stop-opacity="0"/>
</linearGradient>
<linearGradient id="paint36_linear" x1="311.033" y1="138.822" x2="292.779" y2="166.968" gradientUnits="userSpaceOnUse">
<stop stop-color="white"/>
<stop offset="1" stop-color="white" stop-opacity="0"/>
</linearGradient>
<linearGradient id="paint37_linear" x1="386.561" y1="146.2" x2="367.706" y2="165.328" gradientUnits="userSpaceOnUse">
<stop stop-color="white"/>
<stop offset="1" stop-color="white" stop-opacity="0"/>
</linearGradient>
<linearGradient id="paint38_linear" x1="365.8" y1="161.032" x2="344.904" y2="187.877" gradientUnits="userSpaceOnUse">
<stop stop-color="white"/>
<stop offset="1" stop-color="white" stop-opacity="0"/>
</linearGradient>
<linearGradient id="paint39_linear" x1="394.167" y1="178.626" x2="379.645" y2="191.602" gradientUnits="userSpaceOnUse">
<stop stop-color="white"/>
<stop offset="1" stop-color="white" stop-opacity="0"/>
</linearGradient>
<linearGradient id="paint40_linear" x1="341.211" y1="159.49" x2="315.602" y2="186.973" gradientUnits="userSpaceOnUse">
<stop stop-color="white"/>
<stop offset="1" stop-color="white" stop-opacity="0"/>
</linearGradient>
<linearGradient id="paint41_linear" x1="427.076" y1="140.653" x2="354.611" y2="187.618" gradientUnits="userSpaceOnUse">
<stop stop-color="white"/>
<stop offset="1" stop-color="white" stop-opacity="0"/>
</linearGradient>
<linearGradient id="paint42_linear" x1="382.72" y1="131.721" x2="370.915" y2="150.467" gradientUnits="userSpaceOnUse">
<stop stop-color="white"/>
<stop offset="1" stop-color="white" stop-opacity="0"/>
</linearGradient>
<linearGradient id="paint43_linear" x1="352.033" y1="138.822" x2="333.779" y2="166.968" gradientUnits="userSpaceOnUse">
<stop stop-color="white"/>
<stop offset="1" stop-color="white" stop-opacity="0"/>
</linearGradient>
<linearGradient id="paint44_linear" x1="427.561" y1="146.2" x2="408.706" y2="165.328" gradientUnits="userSpaceOnUse">
<stop stop-color="white"/>
<stop offset="1" stop-color="white" stop-opacity="0"/>
</linearGradient>
<linearGradient id="paint45_linear" x1="406.8" y1="161.032" x2="385.904" y2="187.877" gradientUnits="userSpaceOnUse">
<stop stop-color="white"/>
<stop offset="1" stop-color="white" stop-opacity="0"/>
</linearGradient>
<linearGradient id="paint46_linear" x1="435.167" y1="178.626" x2="420.645" y2="191.602" gradientUnits="userSpaceOnUse">
<stop stop-color="white"/>
<stop offset="1" stop-color="white" stop-opacity="0"/>
</linearGradient>
<linearGradient id="paint47_linear" x1="382.211" y1="159.49" x2="356.602" y2="186.973" gradientUnits="userSpaceOnUse">
<stop stop-color="white"/>
<stop offset="1" stop-color="white" stop-opacity="0"/>
</linearGradient>
<linearGradient id="paint48_linear" x1="62.9238" y1="74.6529" x2="135.389" y2="121.618" gradientUnits="userSpaceOnUse">
<stop stop-color="white"/>
<stop offset="1" stop-color="white" stop-opacity="0"/>
</linearGradient>
<linearGradient id="paint49_linear" x1="107.28" y1="65.721" x2="119.085" y2="84.4665" gradientUnits="userSpaceOnUse">
<stop stop-color="white"/>
<stop offset="1" stop-color="white" stop-opacity="0"/>
</linearGradient>
<linearGradient id="paint50_linear" x1="137.967" y1="72.822" x2="156.221" y2="100.968" gradientUnits="userSpaceOnUse">
<stop stop-color="white"/>
<stop offset="1" stop-color="white" stop-opacity="0"/>
</linearGradient>
<linearGradient id="paint51_linear" x1="62.4388" y1="80.2" x2="81.2935" y2="99.328" gradientUnits="userSpaceOnUse">
<stop stop-color="white"/>
<stop offset="1" stop-color="white" stop-opacity="0"/>
</linearGradient>
<linearGradient id="paint52_linear" x1="83.1996" y1="95.0323" x2="104.096" y2="121.877" gradientUnits="userSpaceOnUse">
<stop stop-color="white"/>
<stop offset="1" stop-color="white" stop-opacity="0"/>
</linearGradient>
<linearGradient id="paint53_linear" x1="54.8335" y1="112.626" x2="69.3552" y2="125.602" gradientUnits="userSpaceOnUse">
<stop stop-color="white"/>
<stop offset="1" stop-color="white" stop-opacity="0"/>
</linearGradient>
<linearGradient id="paint54_linear" x1="107.789" y1="93.4899" x2="133.398" y2="120.973" gradientUnits="userSpaceOnUse">
<stop stop-color="white"/>
<stop offset="1" stop-color="white" stop-opacity="0"/>
</linearGradient>
<linearGradient id="paint55_linear" x1="25.9238" y1="140.653" x2="98.3891" y2="187.618" gradientUnits="userSpaceOnUse">
<stop stop-color="white"/>
<stop offset="1" stop-color="white" stop-opacity="0"/>
</linearGradient>
<linearGradient id="paint56_linear" x1="70.2805" y1="131.721" x2="82.0852" y2="150.467" gradientUnits="userSpaceOnUse">
<stop stop-color="white"/>
<stop offset="1" stop-color="white" stop-opacity="0"/>
</linearGradient>
<linearGradient id="paint57_linear" x1="100.967" y1="138.822" x2="119.221" y2="166.968" gradientUnits="userSpaceOnUse">
<stop stop-color="white"/>
<stop offset="1" stop-color="white" stop-opacity="0"/>
</linearGradient>
<linearGradient id="paint58_linear" x1="25.4388" y1="146.2" x2="44.2935" y2="165.328" gradientUnits="userSpaceOnUse">
<stop stop-color="white"/>
<stop offset="1" stop-color="white" stop-opacity="0"/>
</linearGradient>
<linearGradient id="paint59_linear" x1="46.1996" y1="161.032" x2="67.0961" y2="187.877" gradientUnits="userSpaceOnUse">
<stop stop-color="white"/>
<stop offset="1" stop-color="white" stop-opacity="0"/>
</linearGradient>
<linearGradient id="paint60_linear" x1="17.8335" y1="178.626" x2="32.3552" y2="191.602" gradientUnits="userSpaceOnUse">
<stop stop-color="white"/>
<stop offset="1" stop-color="white" stop-opacity="0"/>
</linearGradient>
<linearGradient id="paint61_linear" x1="70.7887" y1="159.49" x2="96.3979" y2="186.973" gradientUnits="userSpaceOnUse">
<stop stop-color="white"/>
<stop offset="1" stop-color="white" stop-opacity="0"/>
</linearGradient>
<linearGradient id="paint62_linear" x1="113.924" y1="140.653" x2="186.389" y2="187.618" gradientUnits="userSpaceOnUse">
<stop stop-color="white"/>
<stop offset="1" stop-color="white" stop-opacity="0"/>
</linearGradient>
<linearGradient id="paint63_linear" x1="158.28" y1="131.721" x2="170.085" y2="150.467" gradientUnits="userSpaceOnUse">
<stop stop-color="white"/>
<stop offset="1" stop-color="white" stop-opacity="0"/>
</linearGradient>
<linearGradient id="paint64_linear" x1="188.967" y1="138.822" x2="207.221" y2="166.968" gradientUnits="userSpaceOnUse">
<stop stop-color="white"/>
<stop offset="1" stop-color="white" stop-opacity="0"/>
</linearGradient>
<linearGradient id="paint65_linear" x1="113.439" y1="146.2" x2="132.294" y2="165.328" gradientUnits="userSpaceOnUse">
<stop stop-color="white"/>
<stop offset="1" stop-color="white" stop-opacity="0"/>
</linearGradient>
<linearGradient id="paint66_linear" x1="134.2" y1="161.032" x2="155.096" y2="187.877" gradientUnits="userSpaceOnUse">
<stop stop-color="white"/>
<stop offset="1" stop-color="white" stop-opacity="0"/>
</linearGradient>
<linearGradient id="paint67_linear" x1="105.833" y1="178.626" x2="120.355" y2="191.602" gradientUnits="userSpaceOnUse">
<stop stop-color="white"/>
<stop offset="1" stop-color="white" stop-opacity="0"/>
</linearGradient>
<linearGradient id="paint68_linear" x1="158.789" y1="159.49" x2="184.398" y2="186.973" gradientUnits="userSpaceOnUse">
<stop stop-color="white"/>
<stop offset="1" stop-color="white" stop-opacity="0"/>
</linearGradient>
<linearGradient id="paint69_linear" x1="188.924" y1="140.653" x2="261.389" y2="187.618" gradientUnits="userSpaceOnUse">
<stop stop-color="white"/>
<stop offset="1" stop-color="white" stop-opacity="0"/>
</linearGradient>
<linearGradient id="paint70_linear" x1="233.28" y1="131.721" x2="245.085" y2="150.467" gradientUnits="userSpaceOnUse">
<stop stop-color="white"/>
<stop offset="1" stop-color="white" stop-opacity="0"/>
</linearGradient>
<linearGradient id="paint71_linear" x1="263.967" y1="138.822" x2="282.221" y2="166.968" gradientUnits="userSpaceOnUse">
<stop stop-color="white"/>
<stop offset="1" stop-color="white" stop-opacity="0"/>
</linearGradient>
<linearGradient id="paint72_linear" x1="188.439" y1="146.2" x2="207.294" y2="165.328" gradientUnits="userSpaceOnUse">
<stop stop-color="white"/>
<stop offset="1" stop-color="white" stop-opacity="0"/>
</linearGradient>
<linearGradient id="paint73_linear" x1="209.2" y1="161.032" x2="230.096" y2="187.877" gradientUnits="userSpaceOnUse">
<stop stop-color="white"/>
<stop offset="1" stop-color="white" stop-opacity="0"/>
</linearGradient>
<linearGradient id="paint74_linear" x1="180.833" y1="178.626" x2="195.355" y2="191.602" gradientUnits="userSpaceOnUse">
<stop stop-color="white"/>
<stop offset="1" stop-color="white" stop-opacity="0"/>
</linearGradient>
<linearGradient id="paint75_linear" x1="233.789" y1="159.49" x2="259.398" y2="186.973" gradientUnits="userSpaceOnUse">
<stop stop-color="white"/>
<stop offset="1" stop-color="white" stop-opacity="0"/>
</linearGradient>
<clipPath id="clip0">
<rect width="150" height="98.276" fill="white" transform="translate(97)"/>
</clipPath>
</defs>
</svg>
