<svg width="2000" height="1356" viewBox="0 0 2000 1356" fill="none" xmlns="http://www.w3.org/2000/svg">
<path d="M1382.08 610.234C1432.09 610.234 1467.12 642.63 1482.46 703.447C1497.73 695.114 1517.8 683.237 1536.23 683.237C1598.26 683.237 1644.82 730.257 1644.82 793.475C1644.82 806.735 1638.71 825.813 1634.72 837.662C1664.97 855.316 1690.37 883.511 1690.37 919.455C1690.37 976.35 1655.06 1022.53 1591.28 1022.53H1172.89C1109.62 1022.53 1073.8 976.353 1073.8 919.455C1073.8 880.836 1099.2 854.782 1129.45 837.128C1125.46 825.28 1118.85 806.736 1118.85 793.477C1118.85 730.259 1167.17 682.703 1227.94 682.703C1246.37 682.703 1265.44 694.58 1280.7 702.914C1295.55 644.223 1332.08 610.27 1382.1 610.27L1382.08 610.234Z" fill="url(#paint0_linear)"/>
<path d="M1302.12 719.5C1302.12 766.378 1337.9 804.382 1382.04 804.382C1426.19 804.382 1461.97 766.378 1461.97 719.5C1461.97 672.622 1426.19 634.617 1382.04 634.617C1337.9 634.617 1302.12 672.622 1302.12 719.5Z" fill="#C4C5C2"/>
<path d="M1302.12 719.5C1302.12 766.378 1337.9 804.382 1382.04 804.382C1426.19 804.382 1461.97 766.378 1461.97 719.5C1461.97 672.622 1426.19 634.617 1382.04 634.617C1337.9 634.617 1302.12 672.622 1302.12 719.5Z" fill="url(#paint1_linear)"/>
<path d="M1142.3 779.999H1599.03V998.268H1142.3V779.999Z" fill="#C4C5C2"/>
<path d="M1530.47 925.59C1530.47 965.771 1561.14 998.347 1598.98 998.347C1636.81 998.347 1667.49 965.771 1667.49 925.59C1667.49 885.409 1636.81 852.834 1598.98 852.834C1561.14 852.834 1530.47 885.409 1530.47 925.59Z" fill="#C4C5C2"/>
<path d="M1142.26 792.257C1142.26 839.135 1178.05 877.139 1222.19 877.139C1266.33 877.139 1302.12 839.135 1302.12 792.257C1302.12 745.379 1266.33 707.375 1222.19 707.375C1178.05 707.375 1142.26 745.379 1142.26 792.257Z" fill="#C4C5C2"/>
<path d="M1142.26 792.257C1142.26 839.135 1178.05 877.139 1222.19 877.139C1266.33 877.139 1302.12 839.135 1302.12 792.257C1302.12 745.379 1266.33 707.375 1222.19 707.375C1178.05 707.375 1142.26 745.379 1142.26 792.257Z" fill="url(#paint2_linear)"/>
<path d="M1461.97 792.257C1461.97 839.135 1497.76 877.139 1541.9 877.139C1586.04 877.139 1621.82 839.135 1621.82 792.257C1621.82 745.379 1586.04 707.375 1541.9 707.375C1497.76 707.375 1461.97 745.379 1461.97 792.257Z" fill="#C4C5C2"/>
<path d="M1461.97 792.257C1461.97 839.135 1497.76 877.139 1541.9 877.139C1586.04 877.139 1621.82 839.135 1621.82 792.257C1621.82 745.379 1586.04 707.375 1541.9 707.375C1497.76 707.375 1461.97 745.379 1461.97 792.257Z" fill="url(#paint3_linear)"/>
<path d="M1405.6 707.971C1487.34 707.971 1553.33 778.802 1553.33 865.61C1553.33 923.105 1522.51 970.811 1479.11 998.241H1331.39C1287.98 970.811 1257.17 922.348 1257.17 864.854C1257.17 778.046 1323.86 707.971 1405.6 707.971Z" fill="#C4C5C2"/>
<path d="M1404.92 707.243C1486.86 707.243 1553.35 777.865 1553.35 864.882C1553.35 922.515 1522.64 970.774 1479.14 998.269H1330.7C1287.19 970.774 1256.48 922.515 1256.48 864.882C1256.48 777.865 1322.98 707.243 1404.92 707.243Z" fill="url(#paint4_linear)"/>
<path d="M1530.47 925.59C1530.47 965.771 1561.14 998.347 1598.98 998.347C1636.81 998.347 1667.48 965.771 1667.48 925.59C1667.48 885.409 1636.81 852.834 1598.98 852.834C1561.14 852.834 1530.47 885.409 1530.47 925.59Z" fill="url(#paint5_linear)"/>
<path d="M1210.49 900.955C1210.49 954.532 1251.39 997.967 1301.84 997.967C1352.28 997.967 1393.18 954.532 1393.18 900.955C1393.18 847.378 1352.28 803.943 1301.84 803.943C1251.39 803.943 1210.49 847.378 1210.49 900.955Z" fill="#C4C5C2"/>
<path d="M1210.49 900.955C1210.49 954.532 1251.39 997.967 1301.84 997.967C1352.28 997.967 1393.18 954.532 1393.18 900.955C1393.18 847.378 1352.28 803.943 1301.84 803.943C1251.39 803.943 1210.49 847.378 1210.49 900.955Z" fill="url(#paint6_linear)"/>
<path d="M1196.65 380.485C1246.66 380.485 1281.69 412.881 1297.03 473.698C1312.3 465.364 1332.37 453.488 1350.8 453.488C1412.83 453.488 1459.39 500.508 1459.39 563.726C1459.39 576.986 1453.28 596.063 1449.29 607.913C1479.54 625.567 1504.94 653.761 1504.94 689.705C1504.94 746.601 1469.63 792.779 1405.85 792.779H987.465C924.185 792.779 888.372 746.603 888.372 689.705C888.372 651.086 913.775 625.032 944.019 607.379C940.028 595.531 933.422 576.987 933.422 563.728C933.422 500.51 981.738 452.954 1042.51 452.954C1060.94 452.954 1080.01 464.831 1095.27 473.164C1110.12 414.474 1146.65 380.521 1196.67 380.521L1196.65 380.485Z" fill="url(#paint7_linear)"/>
<path d="M1116.69 489.75C1116.69 536.628 1152.47 574.633 1196.61 574.633C1240.76 574.633 1276.54 536.628 1276.54 489.75C1276.54 442.872 1240.76 404.868 1196.61 404.868C1152.47 404.868 1116.69 442.872 1116.69 489.75Z" fill="#C4C5C2"/>
<path d="M1116.69 489.75C1116.69 536.628 1152.47 574.633 1196.61 574.633C1240.76 574.633 1276.54 536.628 1276.54 489.75C1276.54 442.872 1240.76 404.868 1196.61 404.868C1152.47 404.868 1116.69 442.872 1116.69 489.75Z" fill="url(#paint8_linear)"/>
<path d="M956.872 550.25H1413.6V768.519H956.872V550.25Z" fill="#C4C5C2"/>
<path d="M1345.04 695.841C1345.04 736.022 1375.71 768.597 1413.55 768.597C1451.38 768.597 1482.06 736.022 1482.06 695.841C1482.06 655.66 1451.38 623.084 1413.55 623.084C1375.71 623.084 1345.04 655.66 1345.04 695.841Z" fill="#C4C5C2"/>
<path d="M956.834 562.508C956.834 609.386 992.62 647.39 1036.76 647.39C1080.9 647.39 1116.69 609.386 1116.69 562.508C1116.69 515.63 1080.9 477.625 1036.76 477.625C992.62 477.625 956.834 515.63 956.834 562.508Z" fill="#C4C5C2"/>
<path d="M956.834 562.508C956.834 609.386 992.62 647.39 1036.76 647.39C1080.9 647.39 1116.69 609.386 1116.69 562.508C1116.69 515.63 1080.9 477.625 1036.76 477.625C992.62 477.625 956.834 515.63 956.834 562.508Z" fill="url(#paint9_linear)"/>
<path d="M1276.54 562.508C1276.54 609.386 1312.33 647.39 1356.47 647.39C1400.61 647.39 1436.39 609.386 1436.39 562.508C1436.39 515.63 1400.61 477.625 1356.47 477.625C1312.33 477.625 1276.54 515.63 1276.54 562.508Z" fill="#C4C5C2"/>
<path d="M1276.54 562.508C1276.54 609.386 1312.33 647.39 1356.47 647.39C1400.61 647.39 1436.39 609.386 1436.39 562.508C1436.39 515.63 1400.61 477.625 1356.47 477.625C1312.33 477.625 1276.54 515.63 1276.54 562.508Z" fill="url(#paint10_linear)"/>
<path d="M1220.17 478.222C1301.91 478.222 1367.9 549.053 1367.9 635.861C1367.9 693.355 1337.08 741.062 1293.68 768.491H1145.96C1102.55 741.062 1071.74 692.599 1071.74 635.104C1071.74 548.296 1138.43 478.222 1220.17 478.222Z" fill="#C4C5C2"/>
<path d="M1219.49 477.494C1301.43 477.494 1367.92 548.116 1367.92 635.133C1367.92 692.765 1337.21 741.025 1293.71 768.519H1145.27C1101.76 741.025 1071.05 692.765 1071.05 635.133C1071.05 548.116 1137.55 477.494 1219.49 477.494Z" fill="url(#paint11_linear)"/>
<path d="M1345.04 695.841C1345.04 736.022 1375.71 768.597 1413.54 768.597C1451.38 768.597 1482.05 736.022 1482.05 695.841C1482.05 655.66 1451.38 623.084 1413.54 623.084C1375.71 623.084 1345.04 655.66 1345.04 695.841Z" fill="url(#paint12_linear)"/>
<path d="M1025.06 671.205C1025.06 724.782 1065.96 768.217 1116.4 768.217C1166.85 768.217 1207.75 724.782 1207.75 671.205C1207.75 617.629 1166.85 574.194 1116.4 574.194C1065.96 574.194 1025.06 617.629 1025.06 671.205Z" fill="#C4C5C2"/>
<path d="M1025.06 671.205C1025.06 724.782 1065.96 768.217 1116.4 768.217C1166.85 768.217 1207.75 724.782 1207.75 671.205C1207.75 617.629 1166.85 574.194 1116.4 574.194C1065.96 574.194 1025.06 617.629 1025.06 671.205Z" fill="url(#paint13_linear)"/>
<g clip-path="url(#clip0)">
<path d="M759.197 380.485C709.193 380.485 674.164 412.881 658.818 473.698C643.553 465.364 623.477 453.488 605.053 453.488C543.018 453.488 496.465 500.508 496.465 563.726C496.465 576.986 502.567 596.063 506.557 607.913C476.313 625.567 450.91 653.761 450.91 689.705C450.91 746.601 486.219 792.779 550.003 792.779H968.385C1031.66 792.779 1067.48 746.603 1067.48 689.705C1067.48 651.086 1042.08 625.032 1011.83 607.379C1015.82 595.531 1022.43 576.987 1022.43 563.728C1022.43 500.51 974.112 452.954 913.335 452.954C894.91 452.954 875.843 464.831 860.577 473.164C845.733 414.474 809.195 380.521 759.184 380.521L759.197 380.485Z" fill="url(#paint14_linear)"/>
<path d="M839.162 489.75C839.162 536.628 803.377 574.633 759.236 574.633C715.094 574.633 679.309 536.628 679.309 489.75C679.309 442.872 715.094 404.868 759.236 404.868C803.377 404.868 839.162 442.872 839.162 489.75Z" fill="#C4C5C2"/>
<path d="M839.162 489.75C839.162 536.628 803.377 574.633 759.236 574.633C715.094 574.633 679.309 536.628 679.309 489.75C679.309 442.872 715.094 404.868 759.236 404.868C803.377 404.868 839.162 442.872 839.162 489.75Z" fill="url(#paint15_linear)"/>
<path d="M998.978 550.25H542.254V768.519H998.978V550.25Z" fill="#C4C5C2"/>
<path d="M610.812 695.841C610.812 736.022 580.138 768.597 542.303 768.597C504.468 768.597 473.794 736.022 473.794 695.841C473.794 655.66 504.468 623.084 542.303 623.084C580.138 623.084 610.812 655.66 610.812 695.841Z" fill="#C4C5C2"/>
<path d="M999.015 562.508C999.015 609.386 963.23 647.39 919.089 647.39C874.948 647.39 839.163 609.386 839.163 562.508C839.163 515.63 874.948 477.625 919.089 477.625C963.23 477.625 999.015 515.63 999.015 562.508Z" fill="#C4C5C2"/>
<path d="M999.015 562.508C999.015 609.386 963.23 647.39 919.089 647.39C874.948 647.39 839.163 609.386 839.163 562.508C839.163 515.63 874.948 477.625 919.089 477.625C963.23 477.625 999.015 515.63 999.015 562.508Z" fill="url(#paint16_linear)"/>
<path d="M679.309 562.508C679.309 609.386 643.523 647.39 599.382 647.39C555.241 647.39 519.456 609.386 519.456 562.508C519.456 515.63 555.241 477.625 599.382 477.625C643.523 477.625 679.309 515.63 679.309 562.508Z" fill="#C4C5C2"/>
<path d="M679.309 562.508C679.309 609.386 643.523 647.39 599.382 647.39C555.241 647.39 519.456 609.386 519.456 562.508C519.456 515.63 555.241 477.625 599.382 477.625C643.523 477.625 679.309 515.63 679.309 562.508Z" fill="url(#paint17_linear)"/>
<path d="M735.677 478.222C653.937 478.222 587.954 549.053 587.954 635.861C587.954 693.355 618.769 741.062 662.171 768.491H809.894C853.297 741.062 884.112 692.599 884.112 635.104C884.112 548.296 817.417 478.222 735.677 478.222Z" fill="#C4C5C2"/>
<path d="M736.361 477.494C654.425 477.494 587.926 548.116 587.926 635.133C587.926 692.765 618.636 741.025 662.143 768.519H810.579C854.086 741.025 884.796 692.765 884.796 635.133C884.796 548.116 818.297 477.494 736.361 477.494Z" fill="url(#paint18_linear)"/>
<path d="M610.814 695.841C610.814 736.022 580.141 768.597 542.305 768.597C504.47 768.597 473.797 736.022 473.797 695.841C473.797 655.66 504.47 623.084 542.305 623.084C580.141 623.084 610.814 655.66 610.814 695.841Z" fill="url(#paint19_linear)"/>
<path d="M930.793 671.205C930.793 724.782 889.894 768.217 839.445 768.217C788.996 768.217 748.097 724.782 748.097 671.205C748.097 617.629 788.996 574.194 839.445 574.194C889.894 574.194 930.793 617.629 930.793 671.205Z" fill="#C4C5C2"/>
<path d="M930.793 671.205C930.793 724.782 889.894 768.217 839.445 768.217C788.996 768.217 748.097 724.782 748.097 671.205C748.097 617.629 788.996 574.194 839.445 574.194C889.894 574.194 930.793 617.629 930.793 671.205Z" fill="url(#paint20_linear)"/>
<path d="M940.213 610.234C890.208 610.234 855.18 642.63 839.834 703.447C824.569 695.114 804.493 683.237 786.068 683.237C724.034 683.237 677.48 730.257 677.48 793.475C677.48 806.735 683.582 825.813 687.573 837.662C657.328 855.317 631.925 883.511 631.925 919.455C631.925 976.35 667.235 1022.53 731.018 1022.53H1149.4C1212.68 1022.53 1248.49 976.353 1248.49 919.455C1248.49 880.836 1223.09 854.782 1192.85 837.129C1196.84 825.28 1203.44 806.736 1203.44 793.477C1203.44 730.259 1155.13 682.703 1094.35 682.703C1075.93 682.703 1056.86 694.58 1041.59 702.914C1026.75 644.223 990.211 610.27 940.2 610.27L940.213 610.234Z" fill="url(#paint21_linear)"/>
<path d="M1020.18 719.5C1020.18 766.378 984.392 804.382 940.251 804.382C896.11 804.382 860.325 766.378 860.325 719.5C860.325 672.622 896.11 634.617 940.251 634.617C984.392 634.617 1020.18 672.622 1020.18 719.5Z" fill="#C4C5C2"/>
<path d="M1020.18 719.5C1020.18 766.378 984.392 804.382 940.251 804.382C896.11 804.382 860.325 766.378 860.325 719.5C860.325 672.622 896.11 634.617 940.251 634.617C984.392 634.617 1020.18 672.622 1020.18 719.5Z" fill="url(#paint22_linear)"/>
<path d="M1179.99 779.999H723.269V998.268H1179.99V779.999Z" fill="#C4C5C2"/>
<path d="M1180.03 792.257C1180.03 839.135 1144.25 877.139 1100.1 877.139C1055.96 877.139 1020.18 839.135 1020.18 792.257C1020.18 745.379 1055.96 707.375 1100.1 707.375C1144.25 707.375 1180.03 745.379 1180.03 792.257Z" fill="#C4C5C2"/>
<path d="M1180.03 792.257C1180.03 839.135 1144.25 877.139 1100.1 877.139C1055.96 877.139 1020.18 839.135 1020.18 792.257C1020.18 745.379 1055.96 707.375 1100.1 707.375C1144.25 707.375 1180.03 745.379 1180.03 792.257Z" fill="url(#paint23_linear)"/>
<path d="M860.324 792.257C860.324 839.135 824.539 877.139 780.398 877.139C736.257 877.139 700.471 839.135 700.471 792.257C700.471 745.379 736.257 707.375 780.398 707.375C824.539 707.375 860.324 745.379 860.324 792.257Z" fill="#C4C5C2"/>
<path d="M860.324 792.257C860.324 839.135 824.539 877.139 780.398 877.139C736.257 877.139 700.471 839.135 700.471 792.257C700.471 745.379 736.257 707.375 780.398 707.375C824.539 707.375 860.324 745.379 860.324 792.257Z" fill="url(#paint24_linear)"/>
<path d="M916.692 707.971C834.952 707.971 768.969 778.802 768.969 865.61C768.969 923.105 799.784 970.811 843.187 998.241H990.91C1034.31 970.811 1065.13 922.348 1065.13 864.854C1065.13 778.046 998.432 707.971 916.692 707.971Z" fill="#C4C5C2"/>
<path d="M917.376 707.243C835.44 707.243 768.941 777.865 768.941 864.882C768.941 922.515 799.651 970.774 843.159 998.269H991.594C1035.1 970.774 1065.81 922.515 1065.81 864.882C1065.81 777.865 999.313 707.243 917.376 707.243Z" fill="url(#paint25_linear)"/>
<path d="M1111.81 900.955C1111.81 954.532 1070.91 997.967 1020.46 997.967C970.011 997.967 929.112 954.532 929.112 900.955C929.112 847.378 970.011 803.943 1020.46 803.943C1070.91 803.943 1111.81 847.378 1111.81 900.955Z" fill="#C4C5C2"/>
<path d="M1111.81 900.955C1111.81 954.532 1070.91 997.967 1020.46 997.967C970.011 997.967 929.112 954.532 929.112 900.955C929.112 847.378 970.011 803.943 1020.46 803.943C1070.91 803.943 1111.81 847.378 1111.81 900.955Z" fill="url(#paint26_linear)"/>
</g>
<path d="M967.072 689.943C1017.08 689.943 1052.1 722.339 1067.45 783.156C1082.72 774.822 1102.79 762.946 1121.22 762.946C1183.25 762.946 1229.8 809.966 1229.8 873.184C1229.8 886.444 1223.7 905.521 1219.71 917.371C1249.96 935.025 1275.36 963.219 1275.36 999.163C1275.36 1056.06 1240.05 1102.24 1176.27 1102.24H757.884C694.605 1102.24 658.791 1056.06 658.791 999.163C658.791 960.544 684.194 934.49 714.438 916.837C710.447 904.989 703.841 886.445 703.841 873.186C703.841 809.968 752.158 762.412 812.934 762.412C831.36 762.412 850.427 774.289 865.693 782.622C880.536 723.932 917.074 689.979 967.085 689.979L967.072 689.943Z" fill="url(#paint27_linear)"/>
<path d="M887.107 799.209C887.107 846.087 922.893 884.091 967.034 884.091C1011.17 884.091 1046.96 846.087 1046.96 799.209C1046.96 752.331 1011.17 714.326 967.034 714.326C922.893 714.326 887.107 752.331 887.107 799.209Z" fill="#C4C5C2"/>
<path d="M887.107 799.209C887.107 846.087 922.893 884.091 967.034 884.091C1011.17 884.091 1046.96 846.087 1046.96 799.209C1046.96 752.331 1011.17 714.326 967.034 714.326C922.893 714.326 887.107 752.331 887.107 799.209Z" fill="url(#paint28_linear)"/>
<path d="M727.292 859.708H1184.02V1077.98H727.292V859.708Z" fill="#C4C5C2"/>
<path d="M1115.46 1005.3C1115.46 1045.48 1146.13 1078.06 1183.97 1078.06C1221.8 1078.06 1252.47 1045.48 1252.47 1005.3C1252.47 965.118 1221.8 932.543 1183.97 932.543C1146.13 932.543 1115.46 965.118 1115.46 1005.3Z" fill="#C4C5C2"/>
<path d="M727.254 871.966C727.254 918.844 763.039 956.848 807.18 956.848C851.321 956.848 887.107 918.844 887.107 871.966C887.107 825.088 851.321 787.083 807.18 787.083C763.039 787.083 727.254 825.088 727.254 871.966Z" fill="#C4C5C2"/>
<path d="M727.254 871.966C727.254 918.844 763.039 956.848 807.18 956.848C851.321 956.848 887.107 918.844 887.107 871.966C887.107 825.088 851.321 787.083 807.18 787.083C763.039 787.083 727.254 825.088 727.254 871.966Z" fill="url(#paint29_linear)"/>
<path d="M1046.96 871.966C1046.96 918.844 1082.75 956.848 1126.89 956.848C1171.03 956.848 1206.81 918.844 1206.81 871.966C1206.81 825.088 1171.03 787.083 1126.89 787.083C1082.75 787.083 1046.96 825.088 1046.96 871.966Z" fill="#C4C5C2"/>
<path d="M1046.96 871.966C1046.96 918.844 1082.75 956.848 1126.89 956.848C1171.03 956.848 1206.81 918.844 1206.81 871.966C1206.81 825.088 1171.03 787.083 1126.89 787.083C1082.75 787.083 1046.96 825.088 1046.96 871.966Z" fill="url(#paint30_linear)"/>
<path d="M990.593 787.68C1072.33 787.68 1138.32 858.511 1138.32 945.319C1138.32 1002.81 1107.5 1050.52 1064.1 1077.95H916.375C872.972 1050.52 842.157 1002.06 842.157 944.563C842.157 857.754 908.853 787.68 990.593 787.68Z" fill="#C4C5C2"/>
<path d="M989.908 786.952C1071.84 786.952 1138.34 857.574 1138.34 944.591C1138.34 1002.22 1107.63 1050.48 1064.13 1077.98H915.691C872.183 1050.48 841.473 1002.22 841.473 944.591C841.473 857.574 907.972 786.952 989.908 786.952Z" fill="url(#paint31_linear)"/>
<path d="M1115.46 1005.3C1115.46 1045.48 1146.13 1078.06 1183.96 1078.06C1221.8 1078.06 1252.47 1045.48 1252.47 1005.3C1252.47 965.118 1221.8 932.543 1183.96 932.543C1146.13 932.543 1115.46 965.118 1115.46 1005.3Z" fill="url(#paint32_linear)"/>
<path d="M795.476 980.664C795.476 1034.24 836.375 1077.68 886.824 1077.68C937.273 1077.68 978.172 1034.24 978.172 980.664C978.172 927.087 937.273 883.652 886.824 883.652C836.375 883.652 795.476 927.087 795.476 980.664Z" fill="#C4C5C2"/>
<path d="M795.476 980.664C795.476 1034.24 836.375 1077.68 886.824 1077.68C937.273 1077.68 978.172 1034.24 978.172 980.664C978.172 927.087 937.273 883.652 886.824 883.652C836.375 883.652 795.476 927.087 795.476 980.664Z" fill="url(#paint33_linear)"/>
<path d="M1488.04 919.692C1538.05 919.692 1573.08 952.088 1588.42 1012.91C1603.69 1004.57 1623.76 992.695 1642.19 992.695C1704.22 992.695 1750.78 1039.71 1750.78 1102.93C1750.78 1116.19 1744.67 1135.27 1740.68 1147.12C1770.93 1164.77 1796.33 1192.97 1796.33 1228.91C1796.33 1285.81 1761.02 1331.99 1697.24 1331.99H1278.86C1215.58 1331.99 1179.76 1285.81 1179.76 1228.91C1179.76 1190.29 1205.17 1164.24 1235.41 1146.59C1231.42 1134.74 1224.81 1116.19 1224.81 1102.94C1224.81 1039.72 1273.13 992.161 1333.91 992.161C1352.33 992.161 1371.4 1004.04 1386.66 1012.37C1401.51 953.681 1438.05 919.728 1488.06 919.728L1488.04 919.692Z" fill="url(#paint34_linear)"/>
<path d="M1408.08 1028.96C1408.08 1075.84 1443.86 1113.84 1488 1113.84C1532.15 1113.84 1567.93 1075.84 1567.93 1028.96C1567.93 982.08 1532.15 944.076 1488 944.076C1443.86 944.076 1408.08 982.08 1408.08 1028.96Z" fill="#C4C5C2"/>
<path d="M1408.08 1028.96C1408.08 1075.84 1443.86 1113.84 1488 1113.84C1532.15 1113.84 1567.93 1075.84 1567.93 1028.96C1567.93 982.08 1532.15 944.076 1488 944.076C1443.86 944.076 1408.08 982.08 1408.08 1028.96Z" fill="url(#paint35_linear)"/>
<path d="M1248.26 1089.46H1704.99V1307.73H1248.26V1089.46Z" fill="#C4C5C2"/>
<path d="M1636.43 1235.05C1636.43 1275.23 1667.1 1307.8 1704.94 1307.8C1742.77 1307.8 1773.45 1275.23 1773.45 1235.05C1773.45 1194.87 1742.77 1162.29 1704.94 1162.29C1667.1 1162.29 1636.43 1194.87 1636.43 1235.05Z" fill="#C4C5C2"/>
<path d="M1248.23 1101.71C1248.23 1148.59 1284.01 1186.6 1328.15 1186.6C1372.29 1186.6 1408.08 1148.59 1408.08 1101.71C1408.08 1054.84 1372.29 1016.83 1328.15 1016.83C1284.01 1016.83 1248.23 1054.84 1248.23 1101.71Z" fill="#C4C5C2"/>
<path d="M1248.23 1101.71C1248.23 1148.59 1284.01 1186.6 1328.15 1186.6C1372.29 1186.6 1408.08 1148.59 1408.08 1101.71C1408.08 1054.84 1372.29 1016.83 1328.15 1016.83C1284.01 1016.83 1248.23 1054.84 1248.23 1101.71Z" fill="url(#paint36_linear)"/>
<path d="M1567.93 1101.71C1567.93 1148.59 1603.72 1186.6 1647.86 1186.6C1692 1186.6 1727.78 1148.59 1727.78 1101.71C1727.78 1054.84 1692 1016.83 1647.86 1016.83C1603.72 1016.83 1567.93 1054.84 1567.93 1101.71Z" fill="#C4C5C2"/>
<path d="M1567.93 1101.71C1567.93 1148.59 1603.72 1186.6 1647.86 1186.6C1692 1186.6 1727.78 1148.59 1727.78 1101.71C1727.78 1054.84 1692 1016.83 1647.86 1016.83C1603.72 1016.83 1567.93 1054.84 1567.93 1101.71Z" fill="url(#paint37_linear)"/>
<path d="M1511.56 1017.43C1593.3 1017.43 1659.29 1088.26 1659.29 1175.07C1659.29 1232.56 1628.47 1280.27 1585.07 1307.7H1437.35C1393.94 1280.27 1363.13 1231.81 1363.13 1174.31C1363.13 1087.5 1429.82 1017.43 1511.56 1017.43Z" fill="#C4C5C2"/>
<path d="M1510.88 1016.7C1592.82 1016.7 1659.31 1087.32 1659.31 1174.34C1659.31 1231.97 1628.6 1280.23 1585.1 1307.73H1436.66C1393.15 1280.23 1362.44 1231.97 1362.44 1174.34C1362.44 1087.32 1428.94 1016.7 1510.88 1016.7Z" fill="url(#paint38_linear)"/>
<path d="M1636.43 1235.05C1636.43 1275.23 1667.1 1307.8 1704.94 1307.8C1742.77 1307.8 1773.44 1275.23 1773.44 1235.05C1773.44 1194.87 1742.77 1162.29 1704.94 1162.29C1667.1 1162.29 1636.43 1194.87 1636.43 1235.05Z" fill="url(#paint39_linear)"/>
<path d="M1316.45 1210.41C1316.45 1263.99 1357.35 1307.42 1407.8 1307.42C1458.24 1307.42 1499.14 1263.99 1499.14 1210.41C1499.14 1156.84 1458.24 1113.4 1407.8 1113.4C1357.35 1113.4 1316.45 1156.84 1316.45 1210.41Z" fill="#C4C5C2"/>
<path d="M1316.45 1210.41C1316.45 1263.99 1357.35 1307.42 1407.8 1307.42C1458.24 1307.42 1499.14 1263.99 1499.14 1210.41C1499.14 1156.84 1458.24 1113.4 1407.8 1113.4C1357.35 1113.4 1316.45 1156.84 1316.45 1210.41Z" fill="url(#paint40_linear)"/>
<path d="M1669.06 919.692C1719.06 919.692 1754.09 952.088 1769.44 1012.91C1784.7 1004.57 1804.78 992.695 1823.2 992.695C1885.24 992.695 1931.79 1039.71 1931.79 1102.93C1931.79 1116.19 1925.69 1135.27 1921.7 1147.12C1951.94 1164.77 1977.35 1192.97 1977.35 1228.91C1977.35 1285.81 1942.04 1331.99 1878.25 1331.99H1459.87C1396.59 1331.99 1360.78 1285.81 1360.78 1228.91C1360.78 1190.29 1386.18 1164.24 1416.42 1146.59C1412.43 1134.74 1405.83 1116.19 1405.83 1102.94C1405.83 1039.72 1454.14 992.161 1514.92 992.161C1533.35 992.161 1552.41 1004.04 1567.68 1012.37C1582.52 953.681 1619.06 919.728 1669.07 919.728L1669.06 919.692Z" fill="url(#paint41_linear)"/>
<path d="M1589.09 1028.96C1589.09 1075.84 1624.88 1113.84 1669.02 1113.84C1713.16 1113.84 1748.95 1075.84 1748.95 1028.96C1748.95 982.08 1713.16 944.076 1669.02 944.076C1624.88 944.076 1589.09 982.08 1589.09 1028.96Z" fill="#C4C5C2"/>
<path d="M1589.09 1028.96C1589.09 1075.84 1624.88 1113.84 1669.02 1113.84C1713.16 1113.84 1748.95 1075.84 1748.95 1028.96C1748.95 982.08 1713.16 944.076 1669.02 944.076C1624.88 944.076 1589.09 982.08 1589.09 1028.96Z" fill="url(#paint42_linear)"/>
<path d="M1429.28 1089.46H1886V1307.73H1429.28V1089.46Z" fill="#C4C5C2"/>
<path d="M1817.44 1235.05C1817.44 1275.23 1848.12 1307.8 1885.95 1307.8C1923.79 1307.8 1954.46 1275.23 1954.46 1235.05C1954.46 1194.87 1923.79 1162.29 1885.95 1162.29C1848.12 1162.29 1817.44 1194.87 1817.44 1235.05Z" fill="#C4C5C2"/>
<path d="M1429.24 1101.71C1429.24 1148.59 1465.03 1186.6 1509.17 1186.6C1553.31 1186.6 1589.09 1148.59 1589.09 1101.71C1589.09 1054.84 1553.31 1016.83 1509.17 1016.83C1465.03 1016.83 1429.24 1054.84 1429.24 1101.71Z" fill="#C4C5C2"/>
<path d="M1429.24 1101.71C1429.24 1148.59 1465.03 1186.6 1509.17 1186.6C1553.31 1186.6 1589.09 1148.59 1589.09 1101.71C1589.09 1054.84 1553.31 1016.83 1509.17 1016.83C1465.03 1016.83 1429.24 1054.84 1429.24 1101.71Z" fill="url(#paint43_linear)"/>
<path d="M1748.95 1101.71C1748.95 1148.59 1784.73 1186.6 1828.87 1186.6C1873.01 1186.6 1908.8 1148.59 1908.8 1101.71C1908.8 1054.84 1873.01 1016.83 1828.87 1016.83C1784.73 1016.83 1748.95 1054.84 1748.95 1101.71Z" fill="#C4C5C2"/>
<path d="M1748.95 1101.71C1748.95 1148.59 1784.73 1186.6 1828.87 1186.6C1873.01 1186.6 1908.8 1148.59 1908.8 1101.71C1908.8 1054.84 1873.01 1016.83 1828.87 1016.83C1784.73 1016.83 1748.95 1054.84 1748.95 1101.71Z" fill="url(#paint44_linear)"/>
<path d="M1692.58 1017.43C1774.32 1017.43 1840.3 1088.26 1840.3 1175.07C1840.3 1232.56 1809.49 1280.27 1766.08 1307.7H1618.36C1574.96 1280.27 1544.14 1231.81 1544.14 1174.31C1544.14 1087.5 1610.84 1017.43 1692.58 1017.43Z" fill="#C4C5C2"/>
<path d="M1691.9 1016.7C1773.83 1016.7 1840.33 1087.32 1840.33 1174.34C1840.33 1231.97 1809.62 1280.23 1766.11 1307.73H1617.68C1574.17 1280.23 1543.46 1231.97 1543.46 1174.34C1543.46 1087.32 1609.96 1016.7 1691.9 1016.7Z" fill="url(#paint45_linear)"/>
<path d="M1817.44 1235.05C1817.44 1275.23 1848.12 1307.8 1885.95 1307.8C1923.79 1307.8 1954.46 1275.23 1954.46 1235.05C1954.46 1194.87 1923.79 1162.29 1885.95 1162.29C1848.12 1162.29 1817.44 1194.87 1817.44 1235.05Z" fill="url(#paint46_linear)"/>
<path d="M1497.46 1210.41C1497.46 1263.99 1538.36 1307.42 1588.81 1307.42C1639.26 1307.42 1680.16 1263.99 1680.16 1210.41C1680.16 1156.84 1639.26 1113.4 1588.81 1113.4C1538.36 1113.4 1497.46 1156.84 1497.46 1210.41Z" fill="#C4C5C2"/>
<path d="M1497.46 1210.41C1497.46 1263.99 1538.36 1307.42 1588.81 1307.42C1639.26 1307.42 1680.16 1263.99 1680.16 1210.41C1680.16 1156.84 1639.26 1113.4 1588.81 1113.4C1538.36 1113.4 1497.46 1156.84 1497.46 1210.41Z" fill="url(#paint47_linear)"/>
<path d="M494.297 610.234C444.292 610.234 409.264 642.63 393.918 703.447C378.653 695.114 358.576 683.237 340.152 683.237C278.118 683.237 231.564 730.257 231.564 793.475C231.564 806.735 237.666 825.813 241.656 837.662C211.412 855.316 186.009 883.511 186.009 919.455C186.009 976.35 221.318 1022.53 285.102 1022.53H703.485C766.764 1022.53 802.578 976.353 802.578 919.455C802.578 880.836 777.175 854.782 746.93 837.128C750.921 825.28 757.528 806.736 757.528 793.477C757.528 730.259 709.211 682.703 648.435 682.703C630.009 682.703 610.942 694.58 595.676 702.914C580.833 644.223 544.295 610.27 494.283 610.27L494.297 610.234Z" fill="url(#paint48_linear)"/>
<path d="M574.261 719.5C574.261 766.378 538.476 804.382 494.335 804.382C450.194 804.382 414.408 766.378 414.408 719.5C414.408 672.622 450.194 634.617 494.335 634.617C538.476 634.617 574.261 672.622 574.261 719.5Z" fill="#C4C5C2"/>
<path d="M574.261 719.5C574.261 766.378 538.476 804.382 494.335 804.382C450.194 804.382 414.408 766.378 414.408 719.5C414.408 672.622 450.194 634.617 494.335 634.617C538.476 634.617 574.261 672.622 574.261 719.5Z" fill="url(#paint49_linear)"/>
<path d="M734.077 779.999H277.353V998.268H734.077V779.999Z" fill="#C4C5C2"/>
<path d="M345.911 925.59C345.911 965.771 315.238 998.347 277.402 998.347C239.567 998.347 208.894 965.771 208.894 925.59C208.894 885.409 239.567 852.834 277.402 852.834C315.238 852.834 345.911 885.409 345.911 925.59Z" fill="#C4C5C2"/>
<path d="M734.115 792.257C734.115 839.135 698.329 877.139 654.188 877.139C610.047 877.139 574.262 839.135 574.262 792.257C574.262 745.379 610.047 707.375 654.188 707.375C698.329 707.375 734.115 745.379 734.115 792.257Z" fill="#C4C5C2"/>
<path d="M734.115 792.257C734.115 839.135 698.329 877.139 654.188 877.139C610.047 877.139 574.262 839.135 574.262 792.257C574.262 745.379 610.047 707.375 654.188 707.375C698.329 707.375 734.115 745.379 734.115 792.257Z" fill="url(#paint50_linear)"/>
<path d="M414.408 792.257C414.408 839.135 378.623 877.139 334.482 877.139C290.34 877.139 254.555 839.135 254.555 792.257C254.555 745.379 290.34 707.375 334.482 707.375C378.623 707.375 414.408 745.379 414.408 792.257Z" fill="#C4C5C2"/>
<path d="M414.408 792.257C414.408 839.135 378.623 877.139 334.482 877.139C290.34 877.139 254.555 839.135 254.555 792.257C254.555 745.379 290.34 707.375 334.482 707.375C378.623 707.375 414.408 745.379 414.408 792.257Z" fill="url(#paint51_linear)"/>
<path d="M470.776 707.971C389.036 707.971 323.053 778.802 323.053 865.61C323.053 923.105 353.868 970.811 397.271 998.241H544.994C588.396 970.811 619.211 922.348 619.211 864.854C619.211 778.046 552.516 707.971 470.776 707.971Z" fill="#C4C5C2"/>
<path d="M471.46 707.243C389.524 707.243 323.025 777.865 323.025 864.882C323.025 922.515 353.735 970.774 397.243 998.269H545.678C589.186 970.774 619.896 922.515 619.896 864.882C619.896 777.865 553.397 707.243 471.46 707.243Z" fill="url(#paint52_linear)"/>
<path d="M345.913 925.59C345.913 965.771 315.24 998.347 277.405 998.347C239.569 998.347 208.896 965.771 208.896 925.59C208.896 885.409 239.569 852.834 277.405 852.834C315.24 852.834 345.913 885.409 345.913 925.59Z" fill="url(#paint53_linear)"/>
<path d="M665.892 900.955C665.892 954.532 624.993 997.967 574.544 997.967C524.095 997.967 483.196 954.532 483.196 900.955C483.196 847.378 524.095 803.943 574.544 803.943C624.993 803.943 665.892 847.378 665.892 900.955Z" fill="#C4C5C2"/>
<path d="M665.892 900.955C665.892 954.532 624.993 997.967 574.544 997.967C524.095 997.967 483.196 954.532 483.196 900.955C483.196 847.378 524.095 803.943 574.544 803.943C624.993 803.943 665.892 847.378 665.892 900.955Z" fill="url(#paint54_linear)"/>
<path d="M330.941 919.692C280.937 919.692 245.908 952.088 230.562 1012.91C215.297 1004.57 195.221 992.695 176.797 992.695C114.762 992.695 68.2085 1039.71 68.2085 1102.93C68.2085 1116.19 74.3105 1135.27 78.3011 1147.12C48.0568 1164.77 22.6539 1192.97 22.6539 1228.91C22.6539 1285.81 57.9631 1331.99 121.747 1331.99H540.129C603.408 1331.99 639.222 1285.81 639.222 1228.91C639.222 1190.29 613.819 1164.24 583.575 1146.59C587.566 1134.74 594.172 1116.19 594.172 1102.94C594.172 1039.72 545.856 992.161 485.079 992.161C466.653 992.161 447.587 1004.04 432.321 1012.37C417.477 953.681 380.939 919.728 330.928 919.728L330.941 919.692Z" fill="url(#paint55_linear)"/>
<path d="M410.906 1028.96C410.906 1075.84 375.121 1113.84 330.979 1113.84C286.838 1113.84 251.053 1075.84 251.053 1028.96C251.053 982.08 286.838 944.076 330.979 944.076C375.121 944.076 410.906 982.08 410.906 1028.96Z" fill="#C4C5C2"/>
<path d="M410.906 1028.96C410.906 1075.84 375.121 1113.84 330.979 1113.84C286.838 1113.84 251.053 1075.84 251.053 1028.96C251.053 982.08 286.838 944.076 330.979 944.076C375.121 944.076 410.906 982.08 410.906 1028.96Z" fill="url(#paint56_linear)"/>
<path d="M570.722 1089.46H113.997V1307.73H570.722V1089.46Z" fill="#C4C5C2"/>
<path d="M182.556 1235.05C182.556 1275.23 151.882 1307.8 114.047 1307.8C76.2117 1307.8 45.5384 1275.23 45.5384 1235.05C45.5384 1194.87 76.2117 1162.29 114.047 1162.29C151.882 1162.29 182.556 1194.87 182.556 1235.05Z" fill="#C4C5C2"/>
<path d="M570.759 1101.71C570.759 1148.59 534.974 1186.6 490.833 1186.6C446.692 1186.6 410.906 1148.59 410.906 1101.71C410.906 1054.84 446.692 1016.83 490.833 1016.83C534.974 1016.83 570.759 1054.84 570.759 1101.71Z" fill="#C4C5C2"/>
<path d="M570.759 1101.71C570.759 1148.59 534.974 1186.6 490.833 1186.6C446.692 1186.6 410.906 1148.59 410.906 1101.71C410.906 1054.84 446.692 1016.83 490.833 1016.83C534.974 1016.83 570.759 1054.84 570.759 1101.71Z" fill="url(#paint57_linear)"/>
<path d="M251.053 1101.71C251.053 1148.59 215.267 1186.6 171.126 1186.6C126.985 1186.6 91.1997 1148.59 91.1997 1101.71C91.1997 1054.84 126.985 1016.83 171.126 1016.83C215.267 1016.83 251.053 1054.84 251.053 1101.71Z" fill="#C4C5C2"/>
<path d="M251.053 1101.71C251.053 1148.59 215.267 1186.6 171.126 1186.6C126.985 1186.6 91.1997 1148.59 91.1997 1101.71C91.1997 1054.84 126.985 1016.83 171.126 1016.83C215.267 1016.83 251.053 1054.84 251.053 1101.71Z" fill="url(#paint58_linear)"/>
<path d="M307.421 1017.43C225.681 1017.43 159.698 1088.26 159.698 1175.07C159.698 1232.56 190.513 1280.27 233.915 1307.7H381.638C425.041 1280.27 455.856 1231.81 455.856 1174.31C455.856 1087.5 389.161 1017.43 307.421 1017.43Z" fill="#C4C5C2"/>
<path d="M308.105 1016.7C226.169 1016.7 159.67 1087.32 159.67 1174.34C159.67 1231.97 190.38 1280.23 233.887 1307.73H382.323C425.83 1280.23 456.54 1231.97 456.54 1174.34C456.54 1087.32 390.041 1016.7 308.105 1016.7Z" fill="url(#paint59_linear)"/>
<path d="M182.558 1235.05C182.558 1275.23 151.885 1307.8 114.049 1307.8C76.2138 1307.8 45.5406 1275.23 45.5406 1235.05C45.5406 1194.87 76.2138 1162.29 114.049 1162.29C151.885 1162.29 182.558 1194.87 182.558 1235.05Z" fill="url(#paint60_linear)"/>
<path d="M502.537 1210.41C502.537 1263.99 461.638 1307.42 411.189 1307.42C360.74 1307.42 319.841 1263.99 319.841 1210.41C319.841 1156.84 360.74 1113.4 411.189 1113.4C461.638 1113.4 502.537 1156.84 502.537 1210.41Z" fill="#C4C5C2"/>
<path d="M502.537 1210.41C502.537 1263.99 461.638 1307.42 411.189 1307.42C360.74 1307.42 319.841 1263.99 319.841 1210.41C319.841 1156.84 360.74 1113.4 411.189 1113.4C461.638 1113.4 502.537 1156.84 502.537 1210.41Z" fill="url(#paint61_linear)"/>
<path d="M719.462 919.692C669.458 919.692 634.429 952.088 619.083 1012.91C603.818 1004.57 583.742 992.695 565.318 992.695C503.283 992.695 456.729 1039.71 456.729 1102.93C456.729 1116.19 462.831 1135.27 466.822 1147.12C436.578 1164.77 411.175 1192.97 411.175 1228.91C411.175 1285.81 446.484 1331.99 510.268 1331.99H928.65C991.929 1331.99 1027.74 1285.81 1027.74 1228.91C1027.74 1190.29 1002.34 1164.24 972.096 1146.59C976.087 1134.74 982.693 1116.19 982.693 1102.94C982.693 1039.72 934.377 992.161 873.6 992.161C855.174 992.161 836.108 1004.04 820.842 1012.37C805.998 953.681 769.46 919.728 719.449 919.728L719.462 919.692Z" fill="url(#paint62_linear)"/>
<path d="M799.427 1028.96C799.427 1075.84 763.642 1113.84 719.5 1113.84C675.359 1113.84 639.574 1075.84 639.574 1028.96C639.574 982.08 675.359 944.076 719.5 944.076C763.642 944.076 799.427 982.08 799.427 1028.96Z" fill="#C4C5C2"/>
<path d="M799.427 1028.96C799.427 1075.84 763.642 1113.84 719.5 1113.84C675.359 1113.84 639.574 1075.84 639.574 1028.96C639.574 982.08 675.359 944.076 719.5 944.076C763.642 944.076 799.427 982.08 799.427 1028.96Z" fill="url(#paint63_linear)"/>
<path d="M959.242 1089.46H502.518V1307.73H959.242V1089.46Z" fill="#C4C5C2"/>
<path d="M571.077 1235.05C571.077 1275.23 540.403 1307.8 502.568 1307.8C464.733 1307.8 434.059 1275.23 434.059 1235.05C434.059 1194.87 464.733 1162.29 502.568 1162.29C540.403 1162.29 571.077 1194.87 571.077 1235.05Z" fill="#C4C5C2"/>
<path d="M959.28 1101.71C959.28 1148.59 923.495 1186.6 879.354 1186.6C835.213 1186.6 799.427 1148.59 799.427 1101.71C799.427 1054.84 835.213 1016.83 879.354 1016.83C923.495 1016.83 959.28 1054.84 959.28 1101.71Z" fill="#C4C5C2"/>
<path d="M959.28 1101.71C959.28 1148.59 923.495 1186.6 879.354 1186.6C835.213 1186.6 799.427 1148.59 799.427 1101.71C799.427 1054.84 835.213 1016.83 879.354 1016.83C923.495 1016.83 959.28 1054.84 959.28 1101.71Z" fill="url(#paint64_linear)"/>
<path d="M639.574 1101.71C639.574 1148.59 603.788 1186.6 559.647 1186.6C515.506 1186.6 479.721 1148.59 479.721 1101.71C479.721 1054.84 515.506 1016.83 559.647 1016.83C603.788 1016.83 639.574 1054.84 639.574 1101.71Z" fill="#C4C5C2"/>
<path d="M639.574 1101.71C639.574 1148.59 603.788 1186.6 559.647 1186.6C515.506 1186.6 479.721 1148.59 479.721 1101.71C479.721 1054.84 515.506 1016.83 559.647 1016.83C603.788 1016.83 639.574 1054.84 639.574 1101.71Z" fill="url(#paint65_linear)"/>
<path d="M695.942 1017.43C614.202 1017.43 548.218 1088.26 548.218 1175.07C548.218 1232.56 579.034 1280.27 622.436 1307.7H770.159C813.562 1280.27 844.377 1231.81 844.377 1174.31C844.377 1087.5 777.682 1017.43 695.942 1017.43Z" fill="#C4C5C2"/>
<path d="M696.626 1016.7C614.69 1016.7 548.191 1087.32 548.191 1174.34C548.191 1231.97 578.901 1280.23 622.408 1307.73H770.844C814.351 1280.23 845.061 1231.97 845.061 1174.34C845.061 1087.32 778.562 1016.7 696.626 1016.7Z" fill="url(#paint66_linear)"/>
<path d="M571.079 1235.05C571.079 1275.23 540.405 1307.8 502.57 1307.8C464.735 1307.8 434.062 1275.23 434.062 1235.05C434.062 1194.87 464.735 1162.29 502.57 1162.29C540.405 1162.29 571.079 1194.87 571.079 1235.05Z" fill="url(#paint67_linear)"/>
<path d="M891.058 1210.41C891.058 1263.99 850.159 1307.42 799.71 1307.42C749.261 1307.42 708.362 1263.99 708.362 1210.41C708.362 1156.84 749.261 1113.4 799.71 1113.4C850.159 1113.4 891.058 1156.84 891.058 1210.41Z" fill="#C4C5C2"/>
<path d="M891.058 1210.41C891.058 1263.99 850.159 1307.42 799.71 1307.42C749.261 1307.42 708.362 1263.99 708.362 1210.41C708.362 1156.84 749.261 1113.4 799.71 1113.4C850.159 1113.4 891.058 1156.84 891.058 1210.41Z" fill="url(#paint68_linear)"/>
<path d="M1050.59 919.692C1000.58 919.692 965.555 952.088 950.209 1012.91C934.944 1004.57 914.868 992.695 896.444 992.695C834.409 992.695 787.855 1039.71 787.855 1102.93C787.855 1116.19 793.957 1135.27 797.948 1147.12C767.704 1164.77 742.301 1192.97 742.301 1228.91C742.301 1285.81 777.61 1331.99 841.394 1331.99H1259.78C1323.06 1331.99 1358.87 1285.81 1358.87 1228.91C1358.87 1190.29 1333.47 1164.24 1303.22 1146.59C1307.21 1134.74 1313.82 1116.19 1313.82 1102.94C1313.82 1039.72 1265.5 992.161 1204.73 992.161C1186.3 992.161 1167.23 1004.04 1151.97 1012.37C1137.12 953.681 1100.59 919.728 1050.57 919.728L1050.59 919.692Z" fill="url(#paint69_linear)"/>
<path d="M1130.55 1028.96C1130.55 1075.84 1094.77 1113.84 1050.63 1113.84C1006.49 1113.84 970.7 1075.84 970.7 1028.96C970.7 982.08 1006.49 944.076 1050.63 944.076C1094.77 944.076 1130.55 982.08 1130.55 1028.96Z" fill="#C4C5C2"/>
<path d="M1130.55 1028.96C1130.55 1075.84 1094.77 1113.84 1050.63 1113.84C1006.49 1113.84 970.7 1075.84 970.7 1028.96C970.7 982.08 1006.49 944.076 1050.63 944.076C1094.77 944.076 1130.55 982.08 1130.55 1028.96Z" fill="url(#paint70_linear)"/>
<path d="M1290.37 1089.46H833.644V1307.73H1290.37V1089.46Z" fill="#C4C5C2"/>
<path d="M902.202 1235.05C902.202 1275.23 871.529 1307.8 833.694 1307.8C795.858 1307.8 765.185 1275.23 765.185 1235.05C765.185 1194.87 795.858 1162.29 833.694 1162.29C871.529 1162.29 902.202 1194.87 902.202 1235.05Z" fill="#C4C5C2"/>
<path d="M1290.41 1101.71C1290.41 1148.59 1254.62 1186.6 1210.48 1186.6C1166.34 1186.6 1130.55 1148.59 1130.55 1101.71C1130.55 1054.84 1166.34 1016.83 1210.48 1016.83C1254.62 1016.83 1290.41 1054.84 1290.41 1101.71Z" fill="#C4C5C2"/>
<path d="M1290.41 1101.71C1290.41 1148.59 1254.62 1186.6 1210.48 1186.6C1166.34 1186.6 1130.55 1148.59 1130.55 1101.71C1130.55 1054.84 1166.34 1016.83 1210.48 1016.83C1254.62 1016.83 1290.41 1054.84 1290.41 1101.71Z" fill="url(#paint71_linear)"/>
<path d="M970.699 1101.71C970.699 1148.59 934.914 1186.6 890.773 1186.6C846.632 1186.6 810.847 1148.59 810.847 1101.71C810.847 1054.84 846.632 1016.83 890.773 1016.83C934.914 1016.83 970.699 1054.84 970.699 1101.71Z" fill="#C4C5C2"/>
<path d="M970.699 1101.71C970.699 1148.59 934.914 1186.6 890.773 1186.6C846.632 1186.6 810.847 1148.59 810.847 1101.71C810.847 1054.84 846.632 1016.83 890.773 1016.83C934.914 1016.83 970.699 1054.84 970.699 1101.71Z" fill="url(#paint72_linear)"/>
<path d="M1027.07 1017.43C945.328 1017.43 879.344 1088.26 879.344 1175.07C879.344 1232.56 910.16 1280.27 953.562 1307.7H1101.29C1144.69 1280.27 1175.5 1231.81 1175.5 1174.31C1175.5 1087.5 1108.81 1017.43 1027.07 1017.43Z" fill="#C4C5C2"/>
<path d="M1027.75 1016.7C945.815 1016.7 879.316 1087.32 879.316 1174.34C879.316 1231.97 910.027 1280.23 953.534 1307.73H1101.97C1145.48 1280.23 1176.19 1231.97 1176.19 1174.34C1176.19 1087.32 1109.69 1016.7 1027.75 1016.7Z" fill="url(#paint73_linear)"/>
<path d="M902.205 1235.05C902.205 1275.23 871.531 1307.8 833.696 1307.8C795.861 1307.8 765.187 1275.23 765.187 1235.05C765.187 1194.87 795.861 1162.29 833.696 1162.29C871.531 1162.29 902.205 1194.87 902.205 1235.05Z" fill="url(#paint74_linear)"/>
<path d="M1222.18 1210.41C1222.18 1263.99 1181.28 1307.42 1130.84 1307.42C1080.39 1307.42 1039.49 1263.99 1039.49 1210.41C1039.49 1156.84 1080.39 1113.4 1130.84 1113.4C1181.28 1113.4 1222.18 1156.84 1222.18 1210.41Z" fill="#C4C5C2"/>
<path d="M1222.18 1210.41C1222.18 1263.99 1181.28 1307.42 1130.84 1307.42C1080.39 1307.42 1039.49 1263.99 1039.49 1210.41C1039.49 1156.84 1080.39 1113.4 1130.84 1113.4C1181.28 1113.4 1222.18 1156.84 1222.18 1210.41Z" fill="url(#paint75_linear)"/>
<path d="M897.346 480.023L897.418 475.987L893.961 475.958L893.89 479.994L887.928 492.065L902.899 492.187L897.346 480.023Z" fill="#3F3D56"/>
<path d="M912.369 480.252L912.44 476.116L908.892 476.08L908.82 480.223L902.705 492.602L918.065 492.724L912.369 480.252Z" fill="#3F3D56"/>
<path d="M927.299 480.273L927.371 476.238L923.914 476.209L923.843 480.245L917.881 492.315L932.862 492.437L927.299 480.273Z" fill="#3F3D56"/>
<path d="M1034.08 481.27L1034.15 477.127L1030.6 477.098L1030.53 481.241L1024.42 493.613L1039.78 493.742L1034.08 481.27Z" fill="#3F3D56"/>
<path d="M1049.44 481.399L1049.51 477.256L1045.96 477.227L1045.89 481.37L1039.78 493.742L1055.14 493.871L1049.44 481.399Z" fill="#3F3D56"/>
<path d="M1064.8 481.528L1064.87 477.385L1061.32 477.356L1061.25 481.499L1055.14 493.871L1070.5 494L1064.8 481.528Z" fill="#3F3D56"/>
<path d="M964.359 480.689L964.43 476.546L960.882 476.517L960.81 480.66L954.695 493.032L970.055 493.161L964.359 480.689Z" fill="#3F3D56"/>
<path d="M979.718 480.818L979.79 476.675L976.252 476.646L976.18 480.789L970.055 493.161L985.414 493.29L979.718 480.818Z" fill="#3F3D56"/>
<path d="M995.078 480.947L995.15 476.804L991.611 476.775L991.54 480.918L985.414 493.29L1000.78 493.419L995.078 480.947Z" fill="#3F3D56"/>
<path d="M953.897 191.083C953.683 176.819 929.712 151.53 916.776 151.423C903.84 151.315 880.187 176.202 879.491 190.459H878.878L874 477.041L949.04 477.664L953.918 191.09L953.897 191.083Z" fill="#3F3D56"/>
<path d="M1090.97 192.23C1090.75 177.966 1066.78 152.677 1053.85 152.57C1040.91 152.462 1017.26 177.349 1016.57 191.606H1015.96L1011.08 478.188L1086.12 478.811L1091 192.237L1090.97 192.23Z" fill="#3F3D56"/>
<path d="M1023.54 58.0032C1023.43 37.0943 999.649 0.107755 986.723 0.000236459C973.797 -0.107283 949.909 36.4779 949.122 57.3437H948.518L941.36 477.557L1016.39 478.187L1023.55 57.9673L1023.54 58.0032Z" fill="#2F2E41"/>
<defs>
<linearGradient id="paint0_linear" x1="1598.57" y1="706.03" x2="1267.53" y2="908.051" gradientUnits="userSpaceOnUse">
<stop stop-color="white"/>
<stop offset="1" stop-color="white" stop-opacity="0"/>
</linearGradient>
<linearGradient id="paint1_linear" x1="1402.74" y1="664.15" x2="1346.01" y2="748.964" gradientUnits="userSpaceOnUse">
<stop stop-color="white"/>
<stop offset="1" stop-color="white" stop-opacity="0"/>
</linearGradient>
<linearGradient id="paint2_linear" x1="1267.25" y1="697.445" x2="1179.67" y2="824.599" gradientUnits="userSpaceOnUse">
<stop stop-color="white"/>
<stop offset="1" stop-color="white" stop-opacity="0"/>
</linearGradient>
<linearGradient id="paint3_linear" x1="1600.71" y1="732.038" x2="1512.39" y2="816.409" gradientUnits="userSpaceOnUse">
<stop stop-color="white"/>
<stop offset="1" stop-color="white" stop-opacity="0"/>
</linearGradient>
<linearGradient id="paint4_linear" x1="1509.05" y1="801.584" x2="1409.79" y2="921.66" gradientUnits="userSpaceOnUse">
<stop stop-color="white"/>
<stop offset="1" stop-color="white" stop-opacity="0"/>
</linearGradient>
<linearGradient id="paint5_linear" x1="1634.29" y1="884.078" x2="1566.78" y2="940.88" gradientUnits="userSpaceOnUse">
<stop stop-color="white"/>
<stop offset="1" stop-color="white" stop-opacity="0"/>
</linearGradient>
<linearGradient id="paint6_linear" x1="1400.49" y1="794.352" x2="1280.12" y2="915.985" gradientUnits="userSpaceOnUse">
<stop stop-color="white"/>
<stop offset="1" stop-color="white" stop-opacity="0"/>
</linearGradient>
<linearGradient id="paint7_linear" x1="1413.14" y1="476.281" x2="1082.1" y2="678.301" gradientUnits="userSpaceOnUse">
<stop stop-color="white"/>
<stop offset="1" stop-color="white" stop-opacity="0"/>
</linearGradient>
<linearGradient id="paint8_linear" x1="1217.3" y1="434.401" x2="1160.58" y2="519.215" gradientUnits="userSpaceOnUse">
<stop stop-color="white"/>
<stop offset="1" stop-color="white" stop-opacity="0"/>
</linearGradient>
<linearGradient id="paint9_linear" x1="1081.82" y1="467.696" x2="994.243" y2="594.85" gradientUnits="userSpaceOnUse">
<stop stop-color="white"/>
<stop offset="1" stop-color="white" stop-opacity="0"/>
</linearGradient>
<linearGradient id="paint10_linear" x1="1415.28" y1="502.289" x2="1326.96" y2="586.66" gradientUnits="userSpaceOnUse">
<stop stop-color="white"/>
<stop offset="1" stop-color="white" stop-opacity="0"/>
</linearGradient>
<linearGradient id="paint11_linear" x1="1323.62" y1="571.835" x2="1224.36" y2="691.911" gradientUnits="userSpaceOnUse">
<stop stop-color="white"/>
<stop offset="1" stop-color="white" stop-opacity="0"/>
</linearGradient>
<linearGradient id="paint12_linear" x1="1448.86" y1="654.329" x2="1381.35" y2="711.131" gradientUnits="userSpaceOnUse">
<stop stop-color="white"/>
<stop offset="1" stop-color="white" stop-opacity="0"/>
</linearGradient>
<linearGradient id="paint13_linear" x1="1215.06" y1="564.602" x2="1094.69" y2="686.236" gradientUnits="userSpaceOnUse">
<stop stop-color="white"/>
<stop offset="1" stop-color="white" stop-opacity="0"/>
</linearGradient>
<linearGradient id="paint14_linear" x1="542.71" y1="476.281" x2="873.745" y2="678.301" gradientUnits="userSpaceOnUse">
<stop stop-color="white"/>
<stop offset="1" stop-color="white" stop-opacity="0"/>
</linearGradient>
<linearGradient id="paint15_linear" x1="738.545" y1="434.401" x2="795.267" y2="519.215" gradientUnits="userSpaceOnUse">
<stop stop-color="white"/>
<stop offset="1" stop-color="white" stop-opacity="0"/>
</linearGradient>
<linearGradient id="paint16_linear" x1="874.029" y1="467.696" x2="961.607" y2="594.85" gradientUnits="userSpaceOnUse">
<stop stop-color="white"/>
<stop offset="1" stop-color="white" stop-opacity="0"/>
</linearGradient>
<linearGradient id="paint17_linear" x1="540.568" y1="502.289" x2="628.891" y2="586.66" gradientUnits="userSpaceOnUse">
<stop stop-color="white"/>
<stop offset="1" stop-color="white" stop-opacity="0"/>
</linearGradient>
<linearGradient id="paint18_linear" x1="632.228" y1="571.835" x2="731.493" y2="691.911" gradientUnits="userSpaceOnUse">
<stop stop-color="white"/>
<stop offset="1" stop-color="white" stop-opacity="0"/>
</linearGradient>
<linearGradient id="paint19_linear" x1="506.991" y1="654.329" x2="574.502" y2="711.131" gradientUnits="userSpaceOnUse">
<stop stop-color="white"/>
<stop offset="1" stop-color="white" stop-opacity="0"/>
</linearGradient>
<linearGradient id="paint20_linear" x1="740.789" y1="564.602" x2="861.157" y2="686.236" gradientUnits="userSpaceOnUse">
<stop stop-color="white"/>
<stop offset="1" stop-color="white" stop-opacity="0"/>
</linearGradient>
<linearGradient id="paint21_linear" x1="723.726" y1="706.03" x2="1054.76" y2="908.051" gradientUnits="userSpaceOnUse">
<stop stop-color="white"/>
<stop offset="1" stop-color="white" stop-opacity="0"/>
</linearGradient>
<linearGradient id="paint22_linear" x1="919.561" y1="664.15" x2="976.283" y2="748.964" gradientUnits="userSpaceOnUse">
<stop stop-color="white"/>
<stop offset="1" stop-color="white" stop-opacity="0"/>
</linearGradient>
<linearGradient id="paint23_linear" x1="1055.04" y1="697.445" x2="1142.62" y2="824.6" gradientUnits="userSpaceOnUse">
<stop stop-color="white"/>
<stop offset="1" stop-color="white" stop-opacity="0"/>
</linearGradient>
<linearGradient id="paint24_linear" x1="721.584" y1="732.039" x2="809.906" y2="816.409" gradientUnits="userSpaceOnUse">
<stop stop-color="white"/>
<stop offset="1" stop-color="white" stop-opacity="0"/>
</linearGradient>
<linearGradient id="paint25_linear" x1="813.243" y1="801.584" x2="912.509" y2="921.66" gradientUnits="userSpaceOnUse">
<stop stop-color="white"/>
<stop offset="1" stop-color="white" stop-opacity="0"/>
</linearGradient>
<linearGradient id="paint26_linear" x1="921.805" y1="794.352" x2="1042.17" y2="915.985" gradientUnits="userSpaceOnUse">
<stop stop-color="white"/>
<stop offset="1" stop-color="white" stop-opacity="0"/>
</linearGradient>
<linearGradient id="paint27_linear" x1="1183.56" y1="785.739" x2="852.524" y2="987.759" gradientUnits="userSpaceOnUse">
<stop stop-color="white"/>
<stop offset="1" stop-color="white" stop-opacity="0"/>
</linearGradient>
<linearGradient id="paint28_linear" x1="987.724" y1="743.859" x2="931.002" y2="828.673" gradientUnits="userSpaceOnUse">
<stop stop-color="white"/>
<stop offset="1" stop-color="white" stop-opacity="0"/>
</linearGradient>
<linearGradient id="paint29_linear" x1="852.241" y1="777.154" x2="764.662" y2="904.308" gradientUnits="userSpaceOnUse">
<stop stop-color="white"/>
<stop offset="1" stop-color="white" stop-opacity="0"/>
</linearGradient>
<linearGradient id="paint30_linear" x1="1185.7" y1="811.747" x2="1097.38" y2="896.118" gradientUnits="userSpaceOnUse">
<stop stop-color="white"/>
<stop offset="1" stop-color="white" stop-opacity="0"/>
</linearGradient>
<linearGradient id="paint31_linear" x1="1094.04" y1="881.293" x2="994.776" y2="1001.37" gradientUnits="userSpaceOnUse">
<stop stop-color="white"/>
<stop offset="1" stop-color="white" stop-opacity="0"/>
</linearGradient>
<linearGradient id="paint32_linear" x1="1219.28" y1="963.787" x2="1151.77" y2="1020.59" gradientUnits="userSpaceOnUse">
<stop stop-color="white"/>
<stop offset="1" stop-color="white" stop-opacity="0"/>
</linearGradient>
<linearGradient id="paint33_linear" x1="985.48" y1="874.06" x2="865.112" y2="995.694" gradientUnits="userSpaceOnUse">
<stop stop-color="white"/>
<stop offset="1" stop-color="white" stop-opacity="0"/>
</linearGradient>
<linearGradient id="paint34_linear" x1="1704.53" y1="1015.49" x2="1373.5" y2="1217.51" gradientUnits="userSpaceOnUse">
<stop stop-color="white"/>
<stop offset="1" stop-color="white" stop-opacity="0"/>
</linearGradient>
<linearGradient id="paint35_linear" x1="1508.7" y1="973.608" x2="1451.97" y2="1058.42" gradientUnits="userSpaceOnUse">
<stop stop-color="white"/>
<stop offset="1" stop-color="white" stop-opacity="0"/>
</linearGradient>
<linearGradient id="paint36_linear" x1="1373.21" y1="1006.9" x2="1285.63" y2="1134.06" gradientUnits="userSpaceOnUse">
<stop stop-color="white"/>
<stop offset="1" stop-color="white" stop-opacity="0"/>
</linearGradient>
<linearGradient id="paint37_linear" x1="1706.67" y1="1041.5" x2="1618.35" y2="1125.87" gradientUnits="userSpaceOnUse">
<stop stop-color="white"/>
<stop offset="1" stop-color="white" stop-opacity="0"/>
</linearGradient>
<linearGradient id="paint38_linear" x1="1615.01" y1="1111.04" x2="1515.75" y2="1231.12" gradientUnits="userSpaceOnUse">
<stop stop-color="white"/>
<stop offset="1" stop-color="white" stop-opacity="0"/>
</linearGradient>
<linearGradient id="paint39_linear" x1="1740.25" y1="1193.54" x2="1672.74" y2="1250.34" gradientUnits="userSpaceOnUse">
<stop stop-color="white"/>
<stop offset="1" stop-color="white" stop-opacity="0"/>
</linearGradient>
<linearGradient id="paint40_linear" x1="1506.45" y1="1103.81" x2="1386.08" y2="1225.44" gradientUnits="userSpaceOnUse">
<stop stop-color="white"/>
<stop offset="1" stop-color="white" stop-opacity="0"/>
</linearGradient>
<linearGradient id="paint41_linear" x1="1885.55" y1="1015.49" x2="1554.51" y2="1217.51" gradientUnits="userSpaceOnUse">
<stop stop-color="white"/>
<stop offset="1" stop-color="white" stop-opacity="0"/>
</linearGradient>
<linearGradient id="paint42_linear" x1="1689.71" y1="973.608" x2="1632.99" y2="1058.42" gradientUnits="userSpaceOnUse">
<stop stop-color="white"/>
<stop offset="1" stop-color="white" stop-opacity="0"/>
</linearGradient>
<linearGradient id="paint43_linear" x1="1554.23" y1="1006.9" x2="1466.65" y2="1134.06" gradientUnits="userSpaceOnUse">
<stop stop-color="white"/>
<stop offset="1" stop-color="white" stop-opacity="0"/>
</linearGradient>
<linearGradient id="paint44_linear" x1="1887.69" y1="1041.5" x2="1799.37" y2="1125.87" gradientUnits="userSpaceOnUse">
<stop stop-color="white"/>
<stop offset="1" stop-color="white" stop-opacity="0"/>
</linearGradient>
<linearGradient id="paint45_linear" x1="1796.03" y1="1111.04" x2="1696.76" y2="1231.12" gradientUnits="userSpaceOnUse">
<stop stop-color="white"/>
<stop offset="1" stop-color="white" stop-opacity="0"/>
</linearGradient>
<linearGradient id="paint46_linear" x1="1921.27" y1="1193.54" x2="1853.75" y2="1250.34" gradientUnits="userSpaceOnUse">
<stop stop-color="white"/>
<stop offset="1" stop-color="white" stop-opacity="0"/>
</linearGradient>
<linearGradient id="paint47_linear" x1="1687.47" y1="1103.81" x2="1567.1" y2="1225.44" gradientUnits="userSpaceOnUse">
<stop stop-color="white"/>
<stop offset="1" stop-color="white" stop-opacity="0"/>
</linearGradient>
<linearGradient id="paint48_linear" x1="277.809" y1="706.03" x2="608.845" y2="908.051" gradientUnits="userSpaceOnUse">
<stop stop-color="white"/>
<stop offset="1" stop-color="white" stop-opacity="0"/>
</linearGradient>
<linearGradient id="paint49_linear" x1="473.645" y1="664.15" x2="530.367" y2="748.964" gradientUnits="userSpaceOnUse">
<stop stop-color="white"/>
<stop offset="1" stop-color="white" stop-opacity="0"/>
</linearGradient>
<linearGradient id="paint50_linear" x1="609.128" y1="697.445" x2="696.706" y2="824.599" gradientUnits="userSpaceOnUse">
<stop stop-color="white"/>
<stop offset="1" stop-color="white" stop-opacity="0"/>
</linearGradient>
<linearGradient id="paint51_linear" x1="275.668" y1="732.038" x2="363.99" y2="816.409" gradientUnits="userSpaceOnUse">
<stop stop-color="white"/>
<stop offset="1" stop-color="white" stop-opacity="0"/>
</linearGradient>
<linearGradient id="paint52_linear" x1="367.327" y1="801.584" x2="466.592" y2="921.66" gradientUnits="userSpaceOnUse">
<stop stop-color="white"/>
<stop offset="1" stop-color="white" stop-opacity="0"/>
</linearGradient>
<linearGradient id="paint53_linear" x1="242.09" y1="884.078" x2="309.602" y2="940.88" gradientUnits="userSpaceOnUse">
<stop stop-color="white"/>
<stop offset="1" stop-color="white" stop-opacity="0"/>
</linearGradient>
<linearGradient id="paint54_linear" x1="475.888" y1="794.352" x2="596.257" y2="915.985" gradientUnits="userSpaceOnUse">
<stop stop-color="white"/>
<stop offset="1" stop-color="white" stop-opacity="0"/>
</linearGradient>
<linearGradient id="paint55_linear" x1="114.454" y1="1015.49" x2="445.489" y2="1217.51" gradientUnits="userSpaceOnUse">
<stop stop-color="white"/>
<stop offset="1" stop-color="white" stop-opacity="0"/>
</linearGradient>
<linearGradient id="paint56_linear" x1="310.289" y1="973.608" x2="367.011" y2="1058.42" gradientUnits="userSpaceOnUse">
<stop stop-color="white"/>
<stop offset="1" stop-color="white" stop-opacity="0"/>
</linearGradient>
<linearGradient id="paint57_linear" x1="445.772" y1="1006.9" x2="533.351" y2="1134.06" gradientUnits="userSpaceOnUse">
<stop stop-color="white"/>
<stop offset="1" stop-color="white" stop-opacity="0"/>
</linearGradient>
<linearGradient id="paint58_linear" x1="112.312" y1="1041.5" x2="200.635" y2="1125.87" gradientUnits="userSpaceOnUse">
<stop stop-color="white"/>
<stop offset="1" stop-color="white" stop-opacity="0"/>
</linearGradient>
<linearGradient id="paint59_linear" x1="203.972" y1="1111.04" x2="303.237" y2="1231.12" gradientUnits="userSpaceOnUse">
<stop stop-color="white"/>
<stop offset="1" stop-color="white" stop-opacity="0"/>
</linearGradient>
<linearGradient id="paint60_linear" x1="78.7349" y1="1193.54" x2="146.246" y2="1250.34" gradientUnits="userSpaceOnUse">
<stop stop-color="white"/>
<stop offset="1" stop-color="white" stop-opacity="0"/>
</linearGradient>
<linearGradient id="paint61_linear" x1="312.533" y1="1103.81" x2="432.901" y2="1225.44" gradientUnits="userSpaceOnUse">
<stop stop-color="white"/>
<stop offset="1" stop-color="white" stop-opacity="0"/>
</linearGradient>
<linearGradient id="paint62_linear" x1="502.975" y1="1015.49" x2="834.01" y2="1217.51" gradientUnits="userSpaceOnUse">
<stop stop-color="white"/>
<stop offset="1" stop-color="white" stop-opacity="0"/>
</linearGradient>
<linearGradient id="paint63_linear" x1="698.81" y1="973.608" x2="755.532" y2="1058.42" gradientUnits="userSpaceOnUse">
<stop stop-color="white"/>
<stop offset="1" stop-color="white" stop-opacity="0"/>
</linearGradient>
<linearGradient id="paint64_linear" x1="834.293" y1="1006.9" x2="921.872" y2="1134.06" gradientUnits="userSpaceOnUse">
<stop stop-color="white"/>
<stop offset="1" stop-color="white" stop-opacity="0"/>
</linearGradient>
<linearGradient id="paint65_linear" x1="500.833" y1="1041.5" x2="589.156" y2="1125.87" gradientUnits="userSpaceOnUse">
<stop stop-color="white"/>
<stop offset="1" stop-color="white" stop-opacity="0"/>
</linearGradient>
<linearGradient id="paint66_linear" x1="592.493" y1="1111.04" x2="691.758" y2="1231.12" gradientUnits="userSpaceOnUse">
<stop stop-color="white"/>
<stop offset="1" stop-color="white" stop-opacity="0"/>
</linearGradient>
<linearGradient id="paint67_linear" x1="467.256" y1="1193.54" x2="534.767" y2="1250.34" gradientUnits="userSpaceOnUse">
<stop stop-color="white"/>
<stop offset="1" stop-color="white" stop-opacity="0"/>
</linearGradient>
<linearGradient id="paint68_linear" x1="701.054" y1="1103.81" x2="821.422" y2="1225.44" gradientUnits="userSpaceOnUse">
<stop stop-color="white"/>
<stop offset="1" stop-color="white" stop-opacity="0"/>
</linearGradient>
<linearGradient id="paint69_linear" x1="834.101" y1="1015.49" x2="1165.14" y2="1217.51" gradientUnits="userSpaceOnUse">
<stop stop-color="white"/>
<stop offset="1" stop-color="white" stop-opacity="0"/>
</linearGradient>
<linearGradient id="paint70_linear" x1="1029.94" y1="973.608" x2="1086.66" y2="1058.42" gradientUnits="userSpaceOnUse">
<stop stop-color="white"/>
<stop offset="1" stop-color="white" stop-opacity="0"/>
</linearGradient>
<linearGradient id="paint71_linear" x1="1165.42" y1="1006.9" x2="1253" y2="1134.06" gradientUnits="userSpaceOnUse">
<stop stop-color="white"/>
<stop offset="1" stop-color="white" stop-opacity="0"/>
</linearGradient>
<linearGradient id="paint72_linear" x1="831.959" y1="1041.5" x2="920.281" y2="1125.87" gradientUnits="userSpaceOnUse">
<stop stop-color="white"/>
<stop offset="1" stop-color="white" stop-opacity="0"/>
</linearGradient>
<linearGradient id="paint73_linear" x1="923.619" y1="1111.04" x2="1022.88" y2="1231.12" gradientUnits="userSpaceOnUse">
<stop stop-color="white"/>
<stop offset="1" stop-color="white" stop-opacity="0"/>
</linearGradient>
<linearGradient id="paint74_linear" x1="798.382" y1="1193.54" x2="865.893" y2="1250.34" gradientUnits="userSpaceOnUse">
<stop stop-color="white"/>
<stop offset="1" stop-color="white" stop-opacity="0"/>
</linearGradient>
<linearGradient id="paint75_linear" x1="1032.18" y1="1103.81" x2="1152.55" y2="1225.44" gradientUnits="userSpaceOnUse">
<stop stop-color="white"/>
<stop offset="1" stop-color="white" stop-opacity="0"/>
</linearGradient>
<clipPath id="clip0">
<rect width="662.252" height="460.793" fill="white" transform="translate(428.256 356)"/>
</clipPath>
</defs>
</svg>
